<?xml version="1.0" encoding="utf-8"?>
<!-- Generator: Adobe Illustrator 18.1.0, SVG Export Plug-In . SVG Version: 6.00 Build 0)  -->
<svg version="1.1" id="Calque_1" xmlns="http://www.w3.org/2000/svg" xmlns:xlink="http://www.w3.org/1999/xlink" x="0px" y="0px"
	 viewBox="0 0 800 600" enable-background="new 0 0 800 600" xml:space="preserve">
<g id="Fond">
	<rect y="4" fill="#CCCCCC" width="800" height="600"/>
	<rect x="20" y="120" fill="#808080" width="765" height="350"/>
</g>
<g id="Calque_4">
	
		<image overflow="visible" enable-background="new    " width="640" height="480" id="Photo15" xlink:href="FAEDECB4.jpeg"  transform="matrix(0.1352 0 0 0.1352 115.9048 123.9155)">
	</image>
	
		<image overflow="visible" enable-background="new    " width="640" height="480" id="Photo14" xlink:href="FAEDECB4.jpeg"  transform="matrix(0.1352 0 0 0.1352 386.7632 331.0088)">
	</image>
	
		<image overflow="visible" enable-background="new    " width="640" height="480" id="Photo13" xlink:href="FAEDECB4.jpeg"  transform="matrix(0.1352 0 0 0.1352 25.6616 330.8115)">
	</image>
	
		<image overflow="visible" enable-background="new    " width="640" height="480" id="Photo12" xlink:href="FAEDECBC.jpeg"  transform="matrix(0.1352 0 0 0.1352 387.686 192.6216)">
	</image>
	
		<image overflow="visible" enable-background="new    " width="640" height="480" id="Photo11" xlink:href="FAEDECBC.jpeg"  transform="matrix(0.1352 0 0 0.1352 387.686 262.0825)">
	</image>
	
		<image overflow="visible" enable-background="new    " width="640" height="480" id="Photo10" xlink:href="FAEDECBC.jpeg"  transform="matrix(0.1352 0 0 0.1352 387.4233 400.083)">
	</image>
	
		<image overflow="visible" enable-background="new    " width="640" height="480" id="Photo9" xlink:href="FAEDECBC.jpeg"  transform="matrix(0.1352 0 0 0.1352 295.5962 400.083)">
	</image>
	
		<image overflow="visible" enable-background="new    " width="640" height="480" id="Photo8" xlink:href="FAEDECB4.jpeg"  transform="matrix(0.1352 0 0 0.1352 205.0903 400.083)">
	</image>
	
		<image overflow="visible" enable-background="new    " width="640" height="480" id="Photo7" xlink:href="FAEDECB4.jpeg"  transform="matrix(0.1352 0 0 0.1352 115.2446 400.083)">
	</image>
	
		<image overflow="visible" enable-background="new    " width="640" height="480" id="Photo6" xlink:href="44633653.jpeg"  transform="matrix(0.1352 0 0 0.1352 24.7388 400.083)">
	</image>
	
		<image overflow="visible" enable-background="new    " width="640" height="480" id="Photo5" xlink:href="44633651.jpeg"  transform="matrix(0.1352 0 0 0.1352 25.6616 261.3267)">
	</image>
	
		<image overflow="visible" enable-background="new    " width="640" height="480" id="Photo4" xlink:href="44633657.jpeg"  transform="matrix(0.1352 0 0 0.1352 25.6616 123.9155)">
	</image>
	
		<image overflow="visible" enable-background="new    " width="640" height="480" id="Photo3" xlink:href="44633651.jpeg"  transform="matrix(0.1352 0 0 0.1352 295.5962 123.9155)">
	</image>
	
		<image overflow="visible" enable-background="new    " width="640" height="480" id="Photo2" xlink:href="44633653.jpeg"  transform="matrix(0.1352 0 0 0.1352 25.6616 192.6216)">
	</image>
	
		<image overflow="visible" enable-background="new    " width="640" height="480" id="Photo1" xlink:href="44633651.jpeg"  transform="matrix(0.1352 0 0 0.1352 205.0903 123.9155)">
	</image>
	
		<image overflow="visible" enable-background="new    " width="640" height="480" id="Cadre" xlink:href="4463364F.jpeg"  transform="matrix(0.4159 0 0 0.4235 115.9038 192.6211)">
	</image>
	<rect id="Nom" x="387" y="124" fill="#B3B3B3" width="87" height="65"/>
	<text id="CDNL" transform="matrix(1 0 0 1 398 160.3633)" font-family="'MyriadPro-Regular'" font-size="12">CDNL 14 - 15</text>
</g>
<g id="Rectangles">
	<rect id="Cadre_1" x="479" y="124" fill="#B3B3B3" width="302" height="139"/>
	<rect id="Cadre_2" x="479" y="266" fill="#B3B3B3" width="302" height="200"/>
	<text id="TxtNom" transform="matrix(1 0 0 1 504.2539 173.5)" font-family="'MyriadPro-Regular'" font-size="12">Nom :</text>
	<text id="Graphisme" transform="matrix(1 0 0 1 504.2539 199.5)" font-family="'MyriadPro-Regular'" font-size="12">Graphisme :</text>
	<text id="Code" transform="matrix(1 0 0 1 504.2539 225.5)" font-family="'MyriadPro-Regular'" font-size="12">Code :</text>
	<text id="Parcours" transform="matrix(1 0 0 1 565.2539 356)" font-family="'MyriadPro-Regular'" font-size="12">Parcours :</text>
</g>
</svg>
