<?xml version="1.0" encoding="utf-8"?>
<!-- Generator: Adobe Illustrator 16.0.0, SVG Export Plug-In . SVG Version: 6.00 Build 0)  -->
<!DOCTYPE svg PUBLIC "-//W3C//DTD SVG 1.1//EN" "http://www.w3.org/Graphics/SVG/1.1/DTD/svg11.dtd">
<svg version="1.1" xmlns="http://www.w3.org/2000/svg" xmlns:xlink="http://www.w3.org/1999/xlink" x="0px" y="0px" width="960px"
	 height="560px" viewBox="0 0 960 560" enable-background="new 0 0 960 560" xml:space="preserve">
<g id="Cadres">
	<rect x="32" y="33" width="117" height="118"/>
	<rect x="559" y="33" width="369" height="498"/>
	<g>
		<path fill="#FFFFFF" d="M67.548,81.675c-2.448,2.414-5.609,3.536-9.043,3.536c-8.839,0-12.579-6.085-12.613-12.273
			c-0.034-6.221,4.012-12.544,12.613-12.544c3.229,0,6.29,1.224,8.737,3.638l-2.992,2.89c-1.564-1.53-3.672-2.244-5.746-2.244
			c-5.746,0-8.227,4.283-8.193,8.261c0.034,3.944,2.312,8.058,8.193,8.058c2.074,0,4.419-0.85,5.983-2.414L67.548,81.675z"/>
		<path fill="#FFFFFF" d="M90.668,72.563c0.102,6.018-3.57,12.103-11.899,12.103c-2.924,0-6.425,0-9.349,0V60.869
			c2.924,0,6.425,0,9.349,0C86.928,60.869,90.566,66.682,90.668,72.563z M73.874,80.349h4.896c5.405,0,7.547-3.944,7.445-7.819
			c-0.102-3.706-2.278-7.411-7.445-7.411h-4.896V80.349z"/>
		<path fill="#FFFFFF" d="M109.266,60.835h4.488v23.832h-2.788v0.034L98.455,68.62v16.046h-4.487V60.869h3.638l11.661,14.754V60.835
			z"/>
		<path fill="#FFFFFF" d="M122.356,60.869v19.65h12.239v4.147h-16.726V60.869H122.356z"/>
		<path fill="#FFFFFF" d="M46.761,113.984c0-2.98,2.84-3.901,5.361-3.901c2.581,0,5.381,1.06,5.401,4.081
			c0,2.86-2.881,4.021-5.361,4.021c-2.041,0.02-4.421,0.5-4.421,2.9v2.141h9.642v1.04H46.681v-3.161c0-3.101,2.86-3.901,5.441-3.901
			c1.82,0,4.401-0.68,4.401-3.041c0-2.46-2.48-3.141-4.401-3.141c-1.86,0-4.301,0.64-4.301,2.96H46.761z"/>
		<path fill="#FFFFFF" d="M58.341,115.585c0-7.342,10.722-7.322,10.722,0v3.34c0,7.322-10.722,7.342-10.722,0V115.585z
			 M59.401,118.925c0,6.001,8.602,5.981,8.602,0v-3.34c0-5.961-8.602-5.981-8.602,0V118.925z"/>
		<path fill="#FFFFFF" d="M69,123.326h2.36v-12.103H69v-0.96h3.44v13.063h2.361v0.94H69V123.326z"/>
		<path fill="#FFFFFF" d="M84.422,110.264v9.762h1.76v1.08h-1.76v3.161h-1.08v-3.161H74.76l-0.22-1.3l8.102-9.542H84.422z
			 M83.342,111.064l-7.642,8.962h7.642V111.064z"/>
		<path fill="#FFFFFF" d="M86.799,117.445h7.001v1.04h-7.001V117.445z"/>
		<path fill="#FFFFFF" d="M94.7,113.984c0-2.98,2.84-3.901,5.361-3.901c2.581,0,5.381,1.06,5.401,4.081
			c0,2.86-2.881,4.021-5.361,4.021c-2.041,0.02-4.421,0.5-4.421,2.9v2.141h9.642v1.04H94.62v-3.161c0-3.101,2.86-3.901,5.441-3.901
			c1.82,0,4.401-0.68,4.401-3.041c0-2.46-2.48-3.141-4.401-3.141c-1.86,0-4.301,0.64-4.301,2.96H94.7z"/>
		<path fill="#FFFFFF" d="M106.279,115.585c0-7.342,10.722-7.322,10.722,0v3.34c0,7.322-10.722,7.342-10.722,0V115.585z
			 M107.339,118.925c0,6.001,8.602,5.981,8.602,0v-3.34c0-5.961-8.602-5.981-8.602,0V118.925z"/>
		<path fill="#FFFFFF" d="M116.939,123.326h2.36v-12.103h-2.36v-0.96h3.44v13.063h2.361v0.94h-5.801V123.326z"/>
		<path fill="#FFFFFF" d="M123.499,116.665v-6.401h9.742v0.96h-8.742v4.481H129c3.801,0,5.021,2.121,5.021,4.301
			c0,2.3-1.72,4.361-5.441,4.361c-2.541,0-5.401-0.84-5.421-3.961h1.08c0,2.44,2.46,2.881,4.341,2.881
			c3.001,0,4.361-1.4,4.361-3.261c0-1.681-0.84-3.361-3.941-3.361H123.499z"/>
	</g>
</g>
<g id="Vignettes">
	
		<image overflow="visible" width="117" height="118" id="vclementine" xlink:href="../../../../../../Users/Somalleos/Documents/CDNL 2014-2015/Trombinoscope/images/vignette10.jpg"  transform="matrix(1 0 0 1 159 286)">
	</image>
	
		<image overflow="visible" width="117" height="118" id="vantoine" xlink:href="../../../../../../Users/Somalleos/Documents/CDNL 2014-2015/Trombinoscope/images/vignette11.jpg"  transform="matrix(1 0 0 1 286 160)">
	</image>
	
		<image overflow="visible" width="117" height="118" id="vamine" xlink:href="../../../../../../Users/Somalleos/Documents/CDNL 2014-2015/Trombinoscope/images/vignette12.jpg"  transform="matrix(1 0 0 1 159 413)">
	</image>
	
		<image overflow="visible" width="117" height="118" id="valexia" xlink:href="../../../../../../Users/Somalleos/Documents/CDNL 2014-2015/Trombinoscope/images/vignette13.jpg"  transform="matrix(1 0 0 1 32 286)">
	</image>
	
		<image overflow="visible" width="117" height="118" id="valexandre" xlink:href="../../../../../../Users/Somalleos/Documents/CDNL 2014-2015/Trombinoscope/images/vignette14.jpg"  transform="matrix(1 0 0 1 413 413)">
	</image>
	
		<image overflow="visible" width="117" height="118" id="vyolaine" xlink:href="../../../../../../Users/Somalleos/Documents/CDNL 2014-2015/Trombinoscope/images/vignette15.jpg"  transform="matrix(1 0 0 1 32 160)">
	</image>
	
		<image overflow="visible" width="117" height="118" id="vsimon" xlink:href="../../../../../../Users/Somalleos/Documents/CDNL 2014-2015/Trombinoscope/images/vignette1.jpg"  transform="matrix(1 0 0 1 159 160)">
	</image>
	
		<image overflow="visible" width="117" height="118" id="vquentin" xlink:href="../../../../../../Users/Somalleos/Documents/CDNL 2014-2015/Trombinoscope/images/vignette2.jpg"  transform="matrix(1 0 0 1 286 33)">
	</image>
	
		<image overflow="visible" width="117" height="118" id="vmarc" xlink:href="../../../../../../Users/Somalleos/Documents/CDNL 2014-2015/Trombinoscope/images/vignette3.jpg"  transform="matrix(1 0 0 1 413 286.5)">
	</image>
	
		<image overflow="visible" width="117" height="118" id="vmacaire" xlink:href="../../../../../../Users/Somalleos/Documents/CDNL 2014-2015/Trombinoscope/images/vignette4.jpg"  transform="matrix(1 0 0 1 286 286.5)">
	</image>
	
		<image overflow="visible" width="117" height="118" id="vlouis" xlink:href="../../../../../../Users/Somalleos/Documents/CDNL 2014-2015/Trombinoscope/images/vignette5.jpg"  transform="matrix(1 0 0 1 159 33)">
	</image>
	
		<image overflow="visible" width="117" height="118" id="vhugo" xlink:href="../../../../../../Users/Somalleos/Documents/CDNL 2014-2015/Trombinoscope/images/vignette6.jpg"  transform="matrix(1 0 0 1 413 33)">
	</image>
	
		<image overflow="visible" width="117" height="118" id="vhelene" xlink:href="../../../../../../Users/Somalleos/Documents/CDNL 2014-2015/Trombinoscope/images/vignette7.jpg"  transform="matrix(1 0 0 1 286 413)">
	</image>
	
		<image overflow="visible" width="117" height="118" id="vguillaume" xlink:href="../../../../../../Users/Somalleos/Documents/CDNL 2014-2015/Trombinoscope/images/vignette8.jpg"  transform="matrix(1 0 0 1 32 413)">
	</image>
	
		<image overflow="visible" width="117" height="118" id="vgabriela" xlink:href="../../../../../../Users/Somalleos/Documents/CDNL 2014-2015/Trombinoscope/images/vignette9.jpg"  transform="matrix(1 0 0 1 413 160)">
	</image>
</g>
<g id="Profil">
	
		<image display="none" overflow="visible" width="198" height="198" id="palexandre" xlink:href="../../../../../../Users/Somalleos/Documents/CDNL 2014-2015/Trombinoscope/images/profil14.jpg"  transform="matrix(1 0 0 1 644.5 69)">
	</image>
	
		<image display="none" overflow="visible" width="198" height="198" id="phelene" xlink:href="../../../../../../Users/Somalleos/Documents/CDNL 2014-2015/Trombinoscope/images/profil7.jpg"  transform="matrix(1 0 0 1 644.5 69)">
	</image>
	
		<image display="none" overflow="visible" width="198" height="198" id="pamine" xlink:href="../../../../../../Users/Somalleos/Documents/CDNL 2014-2015/Trombinoscope/images/profil12.jpg"  transform="matrix(1 0 0 1 644.5 69)">
	</image>
	
		<image display="none" overflow="visible" width="198" height="198" id="pguillaume" xlink:href="../../../../../../Users/Somalleos/Documents/CDNL 2014-2015/Trombinoscope/images/profil8.jpg"  transform="matrix(1 0 0 1 644.5 69)">
	</image>
	
		<image display="none" overflow="visible" width="198" height="198" id="pmarc" xlink:href="../../../../../../Users/Somalleos/Documents/CDNL 2014-2015/Trombinoscope/images/profil3.jpg"  transform="matrix(1 0 0 1 644.5 69)">
	</image>
	
		<image display="none" overflow="visible" width="198" height="198" id="pmacaire" xlink:href="../../../../../../Users/Somalleos/Documents/CDNL 2014-2015/Trombinoscope/images/profil4.jpg"  transform="matrix(1 0 0 1 644.5 69)">
	</image>
	
		<image display="none" overflow="visible" width="198" height="198" id="pclementine" xlink:href="../../../../../../Users/Somalleos/Documents/CDNL 2014-2015/Trombinoscope/images/profil10.jpg"  transform="matrix(1 0 0 1 644.5 69)">
	</image>
	
		<image display="none" overflow="visible" width="198" height="198" id="palexia" xlink:href="../../../../../../Users/Somalleos/Documents/CDNL 2014-2015/Trombinoscope/images/profil13.jpg"  transform="matrix(1 0 0 1 644.5 69)">
	</image>
	
		<image display="none" overflow="visible" width="198" height="198" id="pgabriela" xlink:href="../../../../../../Users/Somalleos/Documents/CDNL 2014-2015/Trombinoscope/images/profil9.jpg"  transform="matrix(1 0 0 1 644.5 69)">
	</image>
	
		<image display="none" overflow="visible" width="198" height="198" id="pantoine" xlink:href="../../../../../../Users/Somalleos/Documents/CDNL 2014-2015/Trombinoscope/images/profil11.jpg"  transform="matrix(1 0 0 1 644.5 69)">
	</image>
	
		<image display="none" overflow="visible" width="198" height="198" id="psimon" xlink:href="../../../../../../Users/Somalleos/Documents/CDNL 2014-2015/Trombinoscope/images/profil1.jpg"  transform="matrix(1 0 0 1 644.5 69)">
	</image>
	
		<image display="none" overflow="visible" width="198" height="198" id="pyolaine" xlink:href="../../../../../../Users/Somalleos/Documents/CDNL 2014-2015/Trombinoscope/images/profil15.jpg"  transform="matrix(1 0 0 1 644.5 69)">
	</image>
	
		<image display="none" overflow="visible" width="198" height="198" id="phugo" xlink:href="../../../../../../Users/Somalleos/Documents/CDNL 2014-2015/Trombinoscope/images/profil6.jpg"  transform="matrix(1 0 0 1 644.5 69)">
	</image>
	
		<image display="none" overflow="visible" width="198" height="198" id="pquentin" xlink:href="../../../../../../Users/Somalleos/Documents/CDNL 2014-2015/Trombinoscope/images/profil2.jpg"  transform="matrix(1 0 0 1 644.5 69)">
	</image>
	
		<image display="none" overflow="visible" width="198" height="198" id="plouis" xlink:href="../../../../../../Users/Somalleos/Documents/CDNL 2014-2015/Trombinoscope/images/profil5.jpg"  transform="matrix(1 0 0 1 644.5 69)">
	</image>
</g>
</svg>
