<?xml version="1.0" encoding="utf-8"?>
<!-- Generator: Adobe Illustrator 16.0.0, SVG Export Plug-In . SVG Version: 6.00 Build 0)  -->
<!DOCTYPE svg PUBLIC "-//W3C//DTD SVG 1.1//EN" "http://www.w3.org/Graphics/SVG/1.1/DTD/svg11.dtd">
<svg version="1.1" id="Main" xmlns="http://www.w3.org/2000/svg" xmlns:xlink="http://www.w3.org/1999/xlink" x="0px" y="0px"
	 width="800px" height="600px" viewBox="0 0 800 600" enable-background="new 0 0 800 600" xml:space="preserve">
<g id="Trombi">
	<rect id="Photo13" x="13.5" y="384.5" fill="#FFFFFF" stroke="#646363" stroke-miterlimit="10" width="99" height="120"/>
	<rect id="Photo14" x="116.5" y="384.5" fill="#FFFFFF" stroke="#646363" stroke-miterlimit="10" width="99" height="120"/>
	<rect id="Photo15" x="220.5" y="384.5" fill="#FFFFFF" stroke="#646363" stroke-miterlimit="10" width="99" height="120"/>
	<rect id="Photo1" x="12.5" y="12.5" fill="#FFFFFF" stroke="#646363" stroke-miterlimit="10" width="99" height="120"/>
	<rect id="Photo2" x="115.5" y="12.5" fill="#FFFFFF" stroke="#646363" stroke-miterlimit="10" width="99" height="120"/>
	<rect id="Photo3" x="219.5" y="12.5" fill="#FFFFFF" stroke="#646363" stroke-miterlimit="10" width="99" height="120"/>
	<rect id="Photo4" x="322.5" y="12.5" fill="#FFFFFF" stroke="#646363" stroke-miterlimit="10" width="99" height="120"/>
	<rect id="Photo5" x="13.5" y="136.5" fill="#FFFFFF" stroke="#646363" stroke-miterlimit="10" width="99" height="120"/>
	<rect id="Photo6" x="116.5" y="136.5" fill="#FFFFFF" stroke="#646363" stroke-miterlimit="10" width="99" height="120"/>
	<rect id="Photo7" x="220.5" y="136.5" fill="#FFFFFF" stroke="#646363" stroke-miterlimit="10" width="99" height="120"/>
	<rect id="Photo8" x="323.5" y="136.5" fill="#FFFFFF" stroke="#646363" stroke-miterlimit="10" width="99" height="120"/>
	<rect id="Photo9" x="13.5" y="260.5" fill="#FFFFFF" stroke="#646363" stroke-miterlimit="10" width="99" height="120"/>
	<rect id="Photo10" x="116.5" y="260.5" fill="#FFFFFF" stroke="#646363" stroke-miterlimit="10" width="99" height="120"/>
	<rect id="Photo11" x="220.5" y="260.5" fill="#FFFFFF" stroke="#646363" stroke-miterlimit="10" width="99" height="120"/>
	<rect id="Photo12" x="323.5" y="260.5" fill="#FFFFFF" stroke="#646363" stroke-miterlimit="10" width="99" height="120"/>
	
		<image overflow="visible" enable-background="new    " width="512" height="384" id="Portrait1" xlink:href="8C856BC8.jpeg"  transform="matrix(0.1673 0 0 0.2882 19.1672 17.1663)">
	</image>
	
		<image overflow="visible" enable-background="new    " width="512" height="384" id="Portrait2" xlink:href="8C856BC8.jpeg"  transform="matrix(0.1738 0 0 0.2917 119.9993 15.929)">
	</image>
	
		<image overflow="visible" enable-background="new    " width="512" height="384" id="Portrait3" xlink:href="8C856BC8.jpeg"  transform="matrix(0.1719 0 0 0.2917 224.4993 15.1663)">
	</image>
	
		<image overflow="visible" enable-background="new    " width="512" height="384" id="Portrait4" xlink:href="8C856BC8.jpeg"  transform="matrix(0.1768 0 0 0.2876 326.4993 16.4983)">
	</image>
	
		<image overflow="visible" enable-background="new    " width="512" height="384" id="Portrait5" xlink:href="8C856BC8.jpeg"  transform="matrix(0.168 0 0 0.2917 20.4993 140.4983)">
	</image>
	
		<image overflow="visible" enable-background="new    " width="512" height="384" id="Portrait6" xlink:href="8C856BC8.jpeg"  transform="matrix(0.1748 0 0 0.2905 121.0002 140.929)">
	</image>
	
		<image overflow="visible" enable-background="new    " width="512" height="384" id="Portrait7" xlink:href="8C856BC8.jpeg"  transform="matrix(0.1768 0 0 0.2928 224.4993 140.4993)">
	</image>
	
		<image overflow="visible" enable-background="new    " width="512" height="384" id="Portrait8" xlink:href="8C856BD8.jpeg"  transform="matrix(0.1729 0 0 0.2884 328.5002 141.1653)">
	</image>
	
		<image overflow="visible" enable-background="new    " width="512" height="384" id="Portrait9" xlink:href="8C856BD8.jpeg"  transform="matrix(0.1689 0 0 0.2928 18.5002 262.4983)">
	</image>
	
		<image overflow="visible" enable-background="new    " width="512" height="384" id="Portrait10" xlink:href="4F489437.jpeg"  transform="matrix(0.1768 0 0 0.298 120.4993 262.5002)">
	</image>
	
		<image overflow="visible" enable-background="new    " width="512" height="384" id="Portrait11" xlink:href="4F489435.jpeg"  transform="matrix(0.1768 0 0 0.298 224.4993 262.5012)">
	</image>
	
		<image overflow="visible" enable-background="new    " width="512" height="384" id="Portrait12" xlink:href="4F489433.jpeg"  transform="matrix(0.1768 0 0 0.298 326.4993 262.4993)">
	</image>
	
		<image overflow="visible" enable-background="new    " width="512" height="384" id="Portrait13" xlink:href="4F48944D.jpeg"  transform="matrix(0.1807 0 0 0.2971 16.4993 387.8342)">
	</image>
	
		<image overflow="visible" enable-background="new    " width="512" height="384" id="Portrait14" xlink:href="4F48944F.jpeg"  transform="matrix(0.1719 0 0 0.2997 120.9993 386.8342)">
	</image>
	
		<image overflow="visible" enable-background="new    " width="512" height="384" id="Portrait15" xlink:href="4F48944D.jpeg"  transform="matrix(0.1768 0 0 0.2971 224.4993 387.8323)">
	</image>
</g>
<g id="Infos">
	<line id="Delim" fill="none" stroke="#646363" stroke-miterlimit="10" x1="436.5" y1="192.5" x2="784.5" y2="192.5"/>
	<path id="Photodetail" fill="#FFFFFF" stroke="#646363" stroke-miterlimit="10" d="M788.5,162.5c0,6.627-5.372,12-12,12h-132
		c-6.634,0-12-5.373-12-12v-134c0-6.627,5.366-12,12-12h132c6.628,0,12,5.373,12,12V162.5z"/>
	<text id="Info" transform="matrix(1 0 0 1 469.7522 28.7219)" font-family="'Rockwell'" font-size="18">Informations :</text>
	<text id="Nom" transform="matrix(1 0 0 1 469.7522 74.7219)" font-family="'Rockwell'" font-size="18">Nom :</text>
	<text id="Prenom" transform="matrix(1 0 0 1 469.7522 119.7219)" font-family="'Rockwell'" font-size="18">Prenom :</text>
	<text id="Ans" transform="matrix(0.8031 0 0 1 512.7903 160.7219)" font-family="'Rockwell'" font-size="18">ans </text>
	<text id="Age" transform="matrix(0.8031 0 0 1 468.7903 160.7219)" font-family="'Rockwell'" font-size="18">Age : </text>
	<text id="Niveaub" transform="matrix(1 0 0 1 465.7522 286.7219)" font-family="'Rockwell'" font-size="18">Niveau en graphisme :</text>
	<text id="Niveau" transform="matrix(1 0 0 1 465.7522 256.7219)" font-family="'Rockwell'" font-size="18">Niveau en code :</text>
	<text id="Code" transform="matrix(1 0 0 1 618.7522 256.7219)" font-family="'Rockwell'" font-size="18">0</text>
	<text id="Graph" transform="matrix(1 0 0 1 663.7522 286.7219)" font-family="'Rockwell'" font-size="18">0</text>
	
		<image overflow="visible" enable-background="new    " width="518" height="544" id="Bigportrait" xlink:href="4F489452.jpg"  transform="matrix(0.2581 0 0 0.2586 643.4934 25.4993)">
	</image>
	<text id="Logiciels" transform="matrix(1 0 0 1 463.5002 340.5002)" font-family="'Rockwell'" font-size="18">Logiciels :</text>
	<line id="Delim_1_" fill="none" stroke="#646363" stroke-miterlimit="10" x1="440.173" y1="322.5" x2="788.173" y2="322.5"/>
	<text id="Photoshop" transform="matrix(1 0 0 1 427.5002 367.5002)" font-family="'Rockwell'" font-size="18">Photoshop :</text>
	<text id="LevelPS" transform="matrix(1 0 0 1 535.5002 367.5002)" font-family="'Rockwell'" font-size="18">Vide</text>
	<text id="Illustrator" transform="matrix(1 0 0 1 427.5002 403.5002)" font-family="'Rockwell'" font-size="18">Illustrator   :</text>
	<text id="LevelIL" transform="matrix(1 0 0 1 535.5002 403.5002)" font-family="'Rockwell'" font-size="18">Vide</text>
	<text id="Inkscape" transform="matrix(1 0 0 1 427.5002 439.5002)" font-family="'Rockwell'" font-size="18">Inkscape    :</text>
	<text id="LevelIS" transform="matrix(1 0 0 1 535.5002 439.5002)" font-family="'Rockwell'" font-size="18">Vide</text>
	<text id="Gimp" transform="matrix(1 0 0 1 427.5002 475.5002)" font-family="'Rockwell'" font-size="18">Gimp   :</text>
	<text id="LevelGIMP" transform="matrix(1 0 0 1 535.5002 475.5002)" font-family="'Rockwell'" font-size="18">Vide</text>
	<text id="Indesign" transform="matrix(1 0 0 1 427.5002 511.5002)" font-family="'Rockwell'" font-size="18">In Design :</text>
	<text id="LevelID" transform="matrix(1 0 0 1 535.5002 511.5002)" font-family="'Rockwell'" font-size="18">Vide</text>
</g>
<g id="Comp">
	<rect x="438.173" y="204.167" fill="none" width="179.998" height="20"/>
	<text id="Competences" transform="matrix(1 0 0 1 465.7161 216.3889)" font-family="'Rockwell'" font-size="18">Compétences :</text>
</g>
</svg>
