<?xml version="1.0" encoding="utf-8"?>
<!-- Generator: Adobe Illustrator 18.1.0, SVG Export Plug-In . SVG Version: 6.00 Build 0)  -->
<svg version="1.1" id="Calque_4_1_" xmlns="http://www.w3.org/2000/svg" xmlns:xlink="http://www.w3.org/1999/xlink" x="0px"
	 y="0px" viewBox="0 0 800 600" enable-background="new 0 0 800 600" xml:space="preserve">
<pattern  y="600" width="177" height="177" patternUnits="userSpaceOnUse" id="SVGID_1_" viewBox="0 -177 177 177" overflow="visible">
	<g>
		<polygon fill="none" points="0,0 177,0 177,-177 0,-177 		"/>
		<g>
			<polygon fill="none" points="0,-177 177,-177 177,0 0,0 			"/>
			<g>
				<polygon fill="none" points="0,0 177,0 177,-177 0,-177 				"/>
				<g>
					<polygon fill="none" points="0,-177 177,-177 177,0 0,0 					"/>
					<g>
						<polygon fill="none" points="0,0 177,0 177,-177 0,-177 						"/>
						<polygon fill="#FDFFC7" points="177,0 0,0 0,-177 177,-177 						"/>
						<polygon fill="#E1E4BC" points="3,0 0,0 0,-177 3,-177 						"/>
						<polygon fill="#EBF1C0" points="24.4,0 22.6,0 22.6,-177 24.4,-177 						"/>
						<polygon fill="#EBF1C0" points="69.1,0 67.2,0 67.2,-177 69.1,-177 						"/>
						<polygon fill="#EBF1C0" points="113.8,0 111.9,0 111.9,-177 113.8,-177 						"/>
						<polygon fill="#EBF1C0" points="158.4,0 156.6,0 156.6,-177 158.4,-177 						"/>
						<polygon fill="#EBF1C0" points="177,-21.4 177,-19.6 0,-19.6 0,-21.4 						"/>
						<polygon fill="#EBF1C0" points="177,-66.1 177,-64.2 0,-64.2 0,-66.1 						"/>
						<polygon fill="#EBF1C0" points="177,-110.8 177,-108.9 0,-108.9 0,-110.8 						"/>
						<polygon fill="#EBF1C0" points="177,-155.4 177,-153.6 0,-153.6 0,-155.4 						"/>
						<polygon fill="#E1E4BC" points="47.7,0 44.7,0 44.7,-177 47.7,-177 						"/>
						<polygon fill="#E1E4BC" points="92.3,0 89.3,0 89.3,-177 92.3,-177 						"/>
						<polygon fill="#E1E4BC" points="137,0 134,0 134,-177 137,-177 						"/>
						<polygon fill="#E1E4BC" points="0,-174 0,-177 177,-177 177,-174 						"/>
						<polygon fill="#E1E4BC" points="0,-129.3 0,-132.3 177,-132.3 177,-129.3 						"/>
						<polygon fill="#E1E4BC" points="0,-84.7 0,-87.7 177,-87.7 177,-84.7 						"/>
						<polygon fill="#E1E4BC" points="0,-40 0,-43 177,-43 177,-40 						"/>
					</g>
				</g>
			</g>
		</g>
	</g>
</pattern>
<g id="Fond">
	<pattern  id="_x3C_Tracé_x3E__2_" xlink:href="#SVGID_1_" patternTransform="matrix(1 0 0 1 0.5 34683.2578)">
	</pattern>
	
		<rect id="_x3C_Tracé_x3E__1_" opacity="0.5" fill="url(#_x3C_Tracé_x3E__2_)" enable-background="new    " width="600.5" height="598.5"/>
	<g id="_x3C_Tracé_x3E_">
		<polygon fill="#111111" points="318.1,566.1 5.1,600 512.1,600 		"/>
		
			<linearGradient id="SVGID_2_" gradientUnits="userSpaceOnUse" x1="598.2769" y1="539.2708" x2="434.1314" y2="580.3066" gradientTransform="matrix(1 0 0 1 -62.9707 9.2017)">
			<stop  offset="0" style="stop-color:#4E4E4E"/>
			<stop  offset="5.470000e-002" style="stop-color:#474747"/>
			<stop  offset="0.2045" style="stop-color:#3C3C3C"/>
			<stop  offset="0.4149" style="stop-color:#353535"/>
			<stop  offset="1" style="stop-color:#333333"/>
		</linearGradient>
		<polygon fill="url(#SVGID_2_)" points="541.6,504.6 318.1,566.1 494.5,601 		"/>
		<polygon fill="#262626" points="563.9,445.6 489.8,600 573.1,527.9 		"/>
		<polygon fill="#141414" points="563.5,522.5 490.5,600.2 574.5,600.2 		"/>
		<rect x="563.7" y="1" fill="#141414" width="238.3" height="599.5"/>
	</g>
</g>
<g id="SVG">
	<g id="Graphique">
		<rect x="601.4" y="38.6" fill="#1D2121" width="161.5" height="11.6"/>
		<rect x="601.4" y="74.4" fill="#1D2121" width="161.5" height="11.6"/>
		<rect x="601.4" y="111.2" fill="#1D2121" width="161.5" height="9.9"/>
		<rect x="601.4" y="147" fill="#1D2121" width="161.5" height="10.5"/>
		<rect x="601.4" y="182.8" fill="#1D2121" width="161.5" height="11"/>
		<rect x="601.4" y="219.1" fill="#1D2121" width="161.5" height="11"/>
		<rect x="601.4" y="254.9" fill="#1D2121" width="161.5" height="11"/>
		<rect x="601.3" y="291.6" fill="#1D2121" width="161.5" height="11.6"/>
		<rect x="601.3" y="327.4" fill="#1D2121" width="161.5" height="11.6"/>
		<rect x="601.3" y="364.2" fill="#1D2121" width="161.5" height="9.9"/>
		<rect x="601.3" y="400" fill="#1D2121" width="161.5" height="10.5"/>
		<rect x="601.3" y="435.8" fill="#1D2121" width="161.5" height="11"/>
		<rect x="601.3" y="472.1" fill="#1D2121" width="161.5" height="11"/>
		<rect x="601.3" y="507.9" fill="#1D2121" width="161.5" height="11"/>
	</g>
	<g id="Textes">
		<g id="CDNL">
			<path fill="#333333" d="M631.9,543.3h24.8v1.2h-11.5c0.2,0.1,0.2,0.2,0.2,0.4c0,0.3-0.1,0.4-0.4,0.4c-0.3,0-0.4-0.1-0.4-0.4
				c0-0.2,0.1-0.3,0.2-0.4h-13L631.9,543.3L631.9,543.3z M643.5,571.5c0.3,0,0.4,0.1,0.4,0.4c0,0.3-0.1,0.5-0.3,0.5h1
				c0,0,0-0.1,0-0.3c0-0.2,0.2-0.4,0.5-0.4c0.3,0.1,0.4,0.2,0.4,0.5c0,0.1,0,0.1,0,0.1c0,0,0,0.1,0,0.1h0.8
				c-0.1-0.1-0.1-0.2-0.1-0.3c0-0.2,0.1-0.4,0.4-0.4c0.2,0,0.4,0.2,0.4,0.5c0,0.1,0,0.2-0.1,0.2h9.9v1.2h-24.8v-1.2h11.6
				c-0.1,0-0.2,0-0.3-0.1c-0.1-0.1-0.1-0.2-0.1-0.3C643.2,571.7,643.3,571.5,643.5,571.5z M631.9,556.1h3.6v0.6h-3.6V556.1z
				 M636.1,558.5c0,0.3-0.2,0.4-0.5,0.4c-0.2,0-0.4-0.1-0.4-0.4c0-0.3,0.1-0.4,0.4-0.4C636,558.1,636.1,558.3,636.1,558.5z
				 M635.3,560.2c0-0.3,0.1-0.4,0.4-0.4c0.3,0,0.4,0.1,0.4,0.4c0,0.3-0.1,0.4-0.4,0.4C635.4,560.6,635.3,560.5,635.3,560.2z
				 M635.4,557c0-0.3,0.1-0.4,0.4-0.4c0.3,0,0.4,0.1,0.4,0.4s-0.1,0.4-0.4,0.4C635.5,557.4,635.4,557.3,635.4,557z M635.9,561.3
				c0.3,0.1,0.4,0.2,0.4,0.5c-0.1,0.3-0.2,0.4-0.5,0.4c-0.2,0-0.4-0.2-0.4-0.5C635.5,561.4,635.7,561.3,635.9,561.3z M635.6,555.4
				c0-0.3,0.1-0.4,0.4-0.4c0.3,0,0.4,0.1,0.4,0.4s-0.1,0.4-0.4,0.4C635.7,555.8,635.6,555.7,635.6,555.4z M635.9,563.4
				c0-0.3,0.1-0.4,0.4-0.4s0.4,0.1,0.4,0.4c0,0.3-0.1,0.4-0.4,0.4C636.1,563.8,635.9,563.7,635.9,563.4z M636,553.9
				c0-0.3,0.1-0.4,0.4-0.4c0.3,0,0.4,0.1,0.4,0.4c0,0.3-0.1,0.4-0.4,0.4C636.1,554.3,636,554.2,636,553.9z M637.1,564.9
				c0,0.2-0.1,0.4-0.4,0.4c-0.3,0-0.4-0.1-0.4-0.4c0-0.3,0.1-0.4,0.4-0.4C637,564.5,637.1,564.6,637.1,564.9z M636.4,552.5
				c0-0.3,0.1-0.4,0.4-0.4s0.4,0.1,0.4,0.4s-0.1,0.4-0.4,0.4C636.5,552.9,636.4,552.7,636.4,552.5z M636.6,556.1h3.6v0.6h-3.6V556.1
				z M637.1,565.9c0.3,0,0.5,0.2,0.5,0.5c0,0.2-0.1,0.4-0.4,0.4c-0.3,0.1-0.5-0.1-0.5-0.4C636.8,566.1,636.9,565.9,637.1,565.9z
				 M637.8,551.2c0,0.2-0.2,0.4-0.5,0.4c-0.2,0-0.4-0.1-0.4-0.4s0.1-0.4,0.4-0.4C637.6,550.8,637.8,550.9,637.8,551.2z M637.9,567.2
				c0.3,0.1,0.4,0.2,0.5,0.4c0,0.1,0,0.2-0.1,0.3c-0.1,0.1-0.2,0.1-0.3,0.1c-0.3,0.1-0.4-0.1-0.4-0.4
				C637.4,567.4,637.6,567.3,637.9,567.2z M638.4,549.7c0,0.3-0.1,0.4-0.4,0.4c-0.3-0.1-0.4-0.2-0.4-0.5c0.1-0.3,0.2-0.4,0.5-0.4
				C638.4,549.3,638.5,549.4,638.4,549.7z M638.8,568.5c0.3-0.1,0.4,0,0.5,0.3c0,0.3-0.1,0.5-0.4,0.5c-0.3,0-0.5-0.2-0.5-0.5
				C638.4,568.7,638.5,568.5,638.8,568.5z M639.4,548.3c0,0.3-0.1,0.4-0.4,0.4c-0.3,0-0.4-0.1-0.4-0.4c0-0.3,0.1-0.4,0.4-0.4
				C639.3,547.9,639.4,548,639.4,548.3z M639.7,569.6c0.3-0.1,0.4,0.1,0.4,0.4c0.1,0.2,0,0.4-0.3,0.5c-0.3,0-0.4-0.1-0.5-0.4
				C639.2,569.8,639.4,569.7,639.7,569.6z M640.3,547.1c0,0.3-0.2,0.4-0.5,0.4c-0.2,0-0.4-0.1-0.4-0.4c0-0.3,0.1-0.4,0.4-0.4
				C640.2,546.6,640.3,546.8,640.3,547.1z M640.7,570.5c0.3-0.1,0.4,0,0.4,0.3c0.1,0.3,0,0.4-0.3,0.5c-0.3-0.1-0.5-0.2-0.5-0.4
				c0-0.1,0-0.2,0.1-0.3C640.4,570.5,640.5,570.5,640.7,570.5z M641.3,546.2c0,0.3-0.1,0.4-0.4,0.4s-0.4-0.2-0.4-0.5
				c0-0.2,0.1-0.4,0.4-0.4C641.2,545.8,641.3,545.9,641.3,546.2z M641.2,556.1h3.6v0.6h-3.6V556.1z M642.1,571.2
				c0.3-0.1,0.4,0.1,0.5,0.4c0,0.2-0.2,0.4-0.5,0.5c-0.3,0-0.4-0.1-0.4-0.4C641.7,571.3,641.8,571.2,642.1,571.2z M642.7,545.3
				c-0.1,0.3-0.2,0.4-0.5,0.4c-0.3,0-0.4-0.1-0.4-0.4c0-0.3,0.1-0.4,0.4-0.4C642.5,544.9,642.7,545.1,642.7,545.3z M644,545
				c0,0.3-0.2,0.4-0.5,0.4c-0.2,0-0.4-0.1-0.4-0.4c0-0.3,0.1-0.4,0.4-0.4C643.9,544.6,644,544.7,644,545z M645.9,556.1h3.6v0.6h-3.6
				V556.1z M646,544.9c0-0.3,0.1-0.4,0.4-0.4s0.4,0.1,0.4,0.4c0,0.3-0.1,0.4-0.4,0.4C646.1,545.3,646,545.2,646,544.9z M647.3,545.4
				c0-0.3,0.1-0.4,0.4-0.4s0.4,0.1,0.4,0.4c0.1,0.3-0.1,0.4-0.4,0.4C647.6,545.8,647.4,545.7,647.3,545.4z M647.9,571.2
				c0.3,0,0.4,0.2,0.3,0.5c0.1,0.2-0.1,0.4-0.4,0.4c-0.3-0.1-0.5-0.2-0.5-0.5C647.4,571.3,647.6,571.2,647.9,571.2z M648.7,546.2
				c0-0.3,0.1-0.4,0.4-0.4s0.4,0.1,0.4,0.4c0,0.3-0.1,0.5-0.4,0.5C648.8,546.6,648.7,546.5,648.7,546.2z M649.3,570.6
				c0.1,0,0.2,0,0.3,0.1c0.1,0.1,0.1,0.2,0.1,0.3c0,0.2-0.2,0.4-0.5,0.4c-0.3-0.1-0.4-0.2-0.3-0.5
				C648.9,570.6,649.1,570.5,649.3,570.6z M649.7,547.1c0-0.3,0.1-0.4,0.4-0.4c0.3,0,0.4,0.1,0.4,0.4c0,0.3-0.1,0.4-0.4,0.4
				C649.8,547.5,649.7,547.4,649.7,547.1z M650.3,569.6c0.3,0.1,0.4,0.2,0.5,0.4c-0.1,0.3-0.2,0.4-0.5,0.4c-0.3-0.1-0.4-0.2-0.3-0.5
				C649.9,569.7,650,569.6,650.3,569.6z M650.4,556.1h3.6v0.6h-3.6V556.1z M650.6,548.4c0-0.3,0.1-0.4,0.4-0.4
				c0.3,0,0.4,0.1,0.4,0.4c0,0.3-0.1,0.4-0.4,0.4C650.7,548.8,650.6,548.6,650.6,548.4z M651.2,568.6c0.3,0,0.4,0.1,0.3,0.4
				c0,0.3-0.2,0.5-0.5,0.5c-0.2-0.1-0.4-0.2-0.4-0.5C650.7,568.6,650.9,568.5,651.2,568.6z M651.6,549.8c-0.1-0.3,0.1-0.4,0.4-0.4
				c0.2-0.1,0.4,0.1,0.5,0.4c0,0.2-0.1,0.4-0.4,0.5C651.7,550.2,651.6,550,651.6,549.8z M652.1,567.3c0.3,0.1,0.4,0.2,0.4,0.5
				c0,0.3-0.1,0.4-0.4,0.4c-0.1,0-0.2,0-0.3-0.1c-0.1-0.1-0.1-0.2-0.1-0.3C651.7,567.5,651.8,567.3,652.1,567.3z M652.2,551.3
				c0-0.3,0.1-0.5,0.4-0.5c0.3,0,0.4,0.1,0.4,0.4c0,0.3-0.1,0.4-0.4,0.4C652.4,551.7,652.2,551.5,652.2,551.3z M652.9,565.9
				c0.2,0.1,0.4,0.2,0.4,0.5c0,0.3-0.2,0.4-0.5,0.4c-0.2,0-0.4-0.1-0.4-0.4C652.4,566.1,652.6,565.9,652.9,565.9z M652.9,565
				c0-0.3,0.1-0.5,0.4-0.5s0.4,0.1,0.4,0.4c0,0.3-0.1,0.4-0.4,0.4C653,565.4,652.9,565.2,652.9,565z M655.1,556.1h1.6v0.6h-1.6
				V556.1z"/>
			<path fill="#333333" d="M662.5,544.7c0,0.3-0.1,0.4-0.4,0.4s-0.4-0.2-0.4-0.5c0-0.1,0-0.2,0.1-0.3H661c0.2,0.1,0.2,0.2,0.2,0.4
				c0,0.3-0.1,0.4-0.4,0.4c-0.3,0-0.4-0.1-0.4-0.4c0-0.2,0.1-0.3,0.2-0.4h-4.3v-1.2H681v1.2h-13.8c0.2,0.1,0.2,0.2,0.2,0.4
				c0,0.3-0.1,0.4-0.4,0.4s-0.4-0.1-0.4-0.4c0-0.2,0.1-0.3,0.2-0.4h-1.2c0.1,0.1,0.1,0.2,0.1,0.3c0,0.3-0.2,0.4-0.5,0.4
				c-0.2,0-0.4-0.1-0.4-0.4c0-0.1,0-0.2,0.1-0.3h-1c0.1,0.1,0.1,0.2,0.1,0.3c-0.1,0.3-0.2,0.4-0.5,0.4c-0.3,0-0.4-0.1-0.4-0.4
				c0-0.1,0-0.2,0.1-0.3h-1.1C662.4,544.5,662.5,544.7,662.5,544.7z M656.3,572.4h4v-0.1c0-0.3,0.1-0.4,0.4-0.4
				c0.3,0,0.4,0.1,0.4,0.4c0,0.1,0,0.1,0,0.1h0.3c0,0,0-0.1,0-0.1c0-0.2,0.2-0.4,0.5-0.4c0.3-0.1,0.4,0.1,0.4,0.4v0.2h0.5v0
				c0-0.1,0-0.2,0.1-0.3c0.1-0.1,0.2-0.1,0.3-0.1c0.3-0.1,0.4,0,0.4,0.3v0.1h0.7v0c-0.1-0.3,0-0.5,0.3-0.5c0.3-0.1,0.5,0.1,0.5,0.4
				c0,0.1,0,0.1,0,0.1h0.6v-0.1c0-0.3,0.1-0.5,0.4-0.5c0.3,0,0.4,0.1,0.4,0.4c0,0.1,0,0.2,0,0.2h0.7c0,0,0-0.1,0-0.1
				c-0.1-0.2,0.1-0.4,0.4-0.5c0.3,0.1,0.4,0.2,0.5,0.4c0,0.1,0,0.2,0,0.2H681v1.2h-24.7L656.3,572.4L656.3,572.4L656.3,572.4z
				 M656.4,556.1h3.6v0.6h-3.6V556.1z M660.4,546.3c0-0.3,0.1-0.4,0.4-0.4c0.3,0,0.4,0.1,0.4,0.4c0,0.3-0.1,0.4-0.4,0.4
				C660.5,546.7,660.4,546.6,660.4,546.3z M660.4,547.7c0-0.3,0.1-0.4,0.4-0.4c0.3,0,0.4,0.1,0.4,0.4s-0.1,0.4-0.4,0.4
				C660.5,548.1,660.4,547.9,660.4,547.7z M660.4,549.1c0-0.3,0.1-0.4,0.4-0.4c0.3,0,0.4,0.1,0.4,0.4c0,0.3-0.1,0.4-0.4,0.4
				C660.5,549.5,660.4,549.4,660.4,549.1z M660.4,550.7c0-0.3,0.1-0.4,0.4-0.4c0.3,0,0.4,0.1,0.4,0.4s-0.1,0.4-0.4,0.4
				C660.5,551.2,660.4,551,660.4,550.7z M660.4,552.5c0-0.3,0.1-0.4,0.4-0.4c0.3,0,0.4,0.1,0.4,0.4s-0.1,0.4-0.4,0.4
				C660.5,552.9,660.4,552.7,660.4,552.5z M660.4,554.1c0-0.3,0.1-0.4,0.4-0.4c0.3,0,0.4,0.1,0.4,0.4c0,0.3-0.1,0.4-0.4,0.4
				C660.5,554.5,660.4,554.4,660.4,554.1z M660.4,555.6c0-0.3,0.1-0.4,0.4-0.4c0.3,0,0.4,0.1,0.4,0.4s-0.1,0.4-0.4,0.4
				C660.5,556,660.4,555.8,660.4,555.6z M660.4,557.1c0-0.3,0.1-0.4,0.4-0.4c0.3,0,0.4,0.1,0.4,0.4s-0.1,0.4-0.4,0.4
				C660.5,557.5,660.4,557.3,660.4,557.1z M660.4,558.4c0-0.3,0.1-0.4,0.4-0.4c0.3,0,0.4,0.1,0.4,0.4s-0.1,0.4-0.4,0.4
				C660.5,558.9,660.4,558.7,660.4,558.4z M660.4,559.9c0-0.3,0.1-0.4,0.4-0.4c0.3,0,0.4,0.1,0.4,0.4c0,0.3-0.1,0.4-0.4,0.4
				C660.5,560.3,660.4,560.2,660.4,559.9z M660.4,561.5c0-0.3,0.1-0.4,0.4-0.4c0.3,0,0.4,0.1,0.4,0.4c0,0.3-0.1,0.4-0.4,0.4
				C660.5,561.9,660.4,561.8,660.4,561.5z M660.4,563.1c0-0.3,0.1-0.4,0.4-0.4c0.3,0,0.4,0.1,0.4,0.4c0,0.3-0.1,0.4-0.4,0.4
				C660.5,563.6,660.4,563.4,660.4,563.1z M660.4,564.8c0-0.3,0.1-0.4,0.4-0.4c0.3,0,0.4,0.1,0.4,0.4c0,0.3-0.1,0.4-0.4,0.4
				C660.5,565.2,660.4,565,660.4,564.8z M660.4,566.6c0-0.3,0.1-0.4,0.4-0.4c0.3,0,0.4,0.1,0.4,0.4c0,0.3-0.1,0.4-0.4,0.4
				C660.5,567,660.4,566.9,660.4,566.6z M660.4,568.1c0-0.3,0.1-0.4,0.4-0.4c0.3,0,0.4,0.1,0.4,0.4c0,0.3-0.1,0.4-0.4,0.4
				C660.5,568.5,660.4,568.3,660.4,568.1z M660.4,569.5c0-0.3,0.1-0.4,0.4-0.4c0.3,0,0.4,0.1,0.4,0.4c0,0.3-0.1,0.4-0.4,0.4
				C660.5,569.9,660.4,569.7,660.4,569.5z M660.4,570.9c0-0.3,0.1-0.4,0.4-0.4c0.3,0,0.4,0.1,0.4,0.4c0,0.3-0.1,0.4-0.4,0.4
				C660.5,571.3,660.4,571.2,660.4,570.9z M661,556.1h3.6v0.6H661V556.1z M665.6,556.1h3.6v0.6h-3.6V556.1z M668.4,545
				c0-0.3,0.1-0.4,0.4-0.4c0.3,0,0.4,0.1,0.4,0.4c0,0.3-0.1,0.4-0.4,0.4C668.5,545.4,668.4,545.3,668.4,545z M668.9,571.5
				c0.2,0,0.4,0.2,0.4,0.5c0,0.1,0,0.2-0.1,0.3c-0.1,0.1-0.2,0.1-0.3,0.1c-0.2,0-0.4-0.2-0.4-0.5
				C668.5,571.6,668.6,571.5,668.9,571.5z M669.8,545.4c0-0.3,0.1-0.4,0.4-0.4c0.3,0,0.4,0.1,0.4,0.4c0.1,0.3-0.1,0.4-0.4,0.4
				C670,545.8,669.8,545.7,669.8,545.4z M670.3,571.1c0.3,0,0.4,0.2,0.3,0.5c0.1,0.2-0.1,0.4-0.4,0.4c-0.3-0.1-0.5-0.2-0.5-0.5
				C669.9,571.2,670.1,571.1,670.3,571.1z M670.3,556.1h3.6v0.6h-3.6V556.1z M671.1,546.1c0-0.3,0.1-0.4,0.4-0.4s0.4,0.1,0.4,0.4
				c0,0.3-0.1,0.5-0.4,0.5C671.3,546.6,671.1,546.4,671.1,546.1z M671.8,570.5c0.1,0,0.2,0,0.3,0.1c0.1,0.1,0.1,0.2,0.1,0.3
				c0,0.2-0.2,0.4-0.5,0.4c-0.3-0.1-0.4-0.2-0.3-0.5C671.4,570.5,671.5,570.4,671.8,570.5z M672.1,547c0-0.3,0.1-0.4,0.4-0.4
				s0.4,0.1,0.4,0.4c0,0.3-0.1,0.4-0.4,0.4C672.3,547.4,672.1,547.3,672.1,547z M672.8,569.5c0.3,0.1,0.4,0.2,0.5,0.4
				c-0.1,0.3-0.2,0.4-0.5,0.4c-0.3-0.1-0.4-0.2-0.3-0.5C672.3,569.6,672.4,569.5,672.8,569.5z M673,548.3c0-0.3,0.1-0.4,0.4-0.4
				s0.4,0.1,0.4,0.4s-0.1,0.4-0.4,0.4C673.2,548.7,673,548.6,673,548.3z M673.6,568.5c0.3,0,0.4,0.1,0.3,0.4c0,0.3-0.2,0.5-0.5,0.5
				c-0.2-0.1-0.4-0.2-0.4-0.5C673.2,568.5,673.4,568.4,673.6,568.5z M674,549.7c-0.1-0.3,0.1-0.4,0.4-0.4c0.2-0.1,0.4,0.1,0.5,0.4
				c0,0.2-0.1,0.4-0.4,0.5C674.1,550.1,674,549.9,674,549.7z M674.6,567.2c0.3,0.1,0.4,0.2,0.4,0.5c0,0.3-0.1,0.4-0.4,0.4
				c-0.1,0-0.2,0-0.3-0.1c-0.1-0.1-0.1-0.2-0.1-0.3C674.1,567.4,674.3,567.2,674.6,567.2z M674.7,551.2c0-0.3,0.1-0.5,0.4-0.5
				s0.4,0.1,0.4,0.4c0,0.3-0.1,0.4-0.4,0.4C674.8,551.6,674.7,551.4,674.7,551.2z M674.8,556.1h3.6v0.6h-1.5
				c0.1,0.1,0.2,0.2,0.2,0.3c0,0.3-0.1,0.4-0.4,0.4c-0.3,0-0.4-0.1-0.4-0.4c0-0.1,0-0.2,0.1-0.3h-1.5L674.8,556.1L674.8,556.1z
				 M675.3,565.8c0.2,0.1,0.4,0.2,0.4,0.5c0,0.3-0.2,0.4-0.5,0.4c-0.2,0-0.4-0.1-0.4-0.4C674.8,566,675,565.8,675.3,565.8z
				 M676,552.4c0,0.3-0.1,0.4-0.4,0.4c-0.3,0-0.4-0.1-0.4-0.4c0-0.3,0.1-0.4,0.4-0.4C675.9,552,676,552.1,676,552.4z M675.3,564.9
				c0-0.3,0.1-0.5,0.4-0.5c0.3,0,0.4,0.1,0.4,0.4c0,0.3-0.1,0.4-0.4,0.4C675.4,565.3,675.3,565.2,675.3,564.9z M676.4,553.8
				c0,0.3-0.1,0.4-0.4,0.4s-0.4-0.1-0.4-0.4s0.1-0.4,0.4-0.4C676.3,553.4,676.4,553.6,676.4,553.8z M676.5,563.4
				c0,0.3-0.1,0.4-0.4,0.4c-0.3,0-0.4-0.1-0.4-0.4c0-0.3,0.1-0.4,0.4-0.4C676.4,563,676.5,563.1,676.5,563.4z M676.8,555.3
				c0,0.3-0.1,0.4-0.4,0.4s-0.4-0.1-0.4-0.4c0-0.3,0.1-0.4,0.4-0.4C676.7,554.9,676.8,555.1,676.8,555.3z M676.5,561.3
				c0.2,0,0.4,0.1,0.5,0.4c0,0.3-0.1,0.5-0.4,0.5c-0.2,0.1-0.4-0.1-0.5-0.4C676.1,561.5,676.2,561.3,676.5,561.3z M677.1,560.2
				c0,0.3-0.1,0.4-0.4,0.4c-0.3,0-0.4-0.1-0.4-0.4c0-0.3,0.1-0.4,0.4-0.4C677,559.7,677.1,559.9,677.1,560.2z M676.3,558.5
				c0-0.3,0.1-0.4,0.4-0.4c0.3,0,0.4,0.1,0.4,0.4c0,0.3-0.1,0.4-0.4,0.4C676.5,558.9,676.3,558.8,676.3,558.5z M679.5,556.1h1.5v0.6
				h-1.5V556.1z"/>
			<path fill="#333333" d="M700.5,544.8c0-0.2,0.1-0.3,0.2-0.4h-16.4c0.2,0.1,0.2,0.2,0.2,0.4c0,0.3-0.1,0.4-0.4,0.4
				c-0.3,0-0.4-0.1-0.4-0.4c0-0.2,0.1-0.3,0.2-0.4h-3.5v-1.2H705v1.2h-3.9c0.2,0.1,0.2,0.2,0.2,0.4c0,0.3-0.1,0.4-0.4,0.4
				C700.6,545.2,700.5,545.1,700.5,544.8z M680.5,572.4h3.3v-0.1c0-0.3,0.1-0.4,0.4-0.4c0.3,0,0.4,0.1,0.4,0.4c0,0.1,0,0.1,0,0.1
				h15.9v-0.1c0-0.3,0.1-0.4,0.4-0.4c0.3,0,0.4,0.1,0.4,0.4c0,0.1,0,0.1,0,0.1h3.8v1.2h-24.6L680.5,572.4L680.5,572.4z M680.5,556.1
				h3.6v0.6h0.1c0.3,0,0.4,0.1,0.4,0.4c0,0.3-0.1,0.4-0.4,0.4s-0.4-0.1-0.4-0.4c0-0.2,0.1-0.4,0.3-0.4h-3.6L680.5,556.1L680.5,556.1
				z M683.8,546.3c0-0.3,0.1-0.4,0.4-0.4s0.4,0.1,0.4,0.4c0,0.3-0.1,0.4-0.4,0.4C683.9,546.7,683.8,546.6,683.8,546.3z M683.8,547.7
				c0-0.3,0.1-0.4,0.4-0.4s0.4,0.1,0.4,0.4s-0.1,0.4-0.4,0.4C683.9,548.1,683.8,547.9,683.8,547.7z M683.8,549.1
				c0-0.3,0.1-0.4,0.4-0.4s0.4,0.1,0.4,0.4c0,0.3-0.1,0.4-0.4,0.4C683.9,549.5,683.8,549.4,683.8,549.1z M683.8,550.7
				c0-0.3,0.1-0.4,0.4-0.4s0.4,0.1,0.4,0.4s-0.1,0.4-0.4,0.4C683.9,551.2,683.8,551,683.8,550.7z M683.8,552.5
				c0-0.3,0.1-0.4,0.4-0.4s0.4,0.1,0.4,0.4s-0.1,0.4-0.4,0.4C683.9,552.9,683.8,552.7,683.8,552.5z M683.8,554.1
				c0-0.3,0.1-0.4,0.4-0.4s0.4,0.1,0.4,0.4c0,0.3-0.1,0.4-0.4,0.4C683.9,554.5,683.8,554.4,683.8,554.1z M683.8,555.6
				c0-0.3,0.1-0.4,0.4-0.4s0.4,0.1,0.4,0.4s-0.1,0.4-0.4,0.4C683.9,556,683.8,555.8,683.8,555.6z M683.8,558.4
				c0-0.3,0.1-0.4,0.4-0.4s0.4,0.1,0.4,0.4s-0.1,0.4-0.4,0.4C683.9,558.9,683.8,558.7,683.8,558.4z M683.8,559.9
				c0-0.3,0.1-0.4,0.4-0.4s0.4,0.1,0.4,0.4c0,0.3-0.1,0.4-0.4,0.4C683.9,560.3,683.8,560.2,683.8,559.9z M683.8,561.5
				c0-0.3,0.1-0.4,0.4-0.4s0.4,0.1,0.4,0.4c0,0.3-0.1,0.4-0.4,0.4C683.9,561.9,683.8,561.8,683.8,561.5z M683.8,563.1
				c0-0.3,0.1-0.4,0.4-0.4s0.4,0.1,0.4,0.4c0,0.3-0.1,0.4-0.4,0.4C683.9,563.6,683.8,563.4,683.8,563.1z M683.8,564.8
				c0-0.3,0.1-0.4,0.4-0.4s0.4,0.1,0.4,0.4c0,0.3-0.1,0.4-0.4,0.4C683.9,565.2,683.8,565,683.8,564.8z M683.8,566.6
				c0-0.3,0.1-0.4,0.4-0.4s0.4,0.1,0.4,0.4c0,0.3-0.1,0.4-0.4,0.4C683.9,567,683.8,566.9,683.8,566.6z M683.8,568.1
				c0-0.3,0.1-0.4,0.4-0.4s0.4,0.1,0.4,0.4c0,0.3-0.1,0.4-0.4,0.4C683.9,568.5,683.8,568.3,683.8,568.1z M683.8,569.5
				c0-0.3,0.1-0.4,0.4-0.4s0.4,0.1,0.4,0.4c0,0.3-0.1,0.4-0.4,0.4C683.9,569.9,683.8,569.7,683.8,569.5z M683.8,570.9
				c0-0.3,0.1-0.4,0.4-0.4s0.4,0.1,0.4,0.4c0,0.3-0.1,0.4-0.4,0.4C683.9,571.3,683.8,571.2,683.8,570.9z M684.9,546
				c-0.1-0.2-0.1-0.4,0.2-0.6c0.1-0.1,0.2-0.1,0.3,0c0.1,0,0.2,0.1,0.3,0.2c0.1,0.1,0.1,0.2,0,0.3c0,0.1-0.1,0.2-0.2,0.3
				c-0.1,0.1-0.2,0.1-0.3,0.1C685,546.2,684.9,546.1,684.9,546z M685.2,556.1h3.6v0.6h-3.6V556.1z M685.6,547.3
				c-0.2-0.2-0.1-0.4,0.1-0.6c0.2-0.1,0.4-0.1,0.6,0.2c0.1,0.2,0.1,0.4-0.2,0.6C685.9,547.6,685.7,547.5,685.6,547.3z M686.3,548.5
				c-0.1-0.1-0.1-0.2,0-0.3c0.1-0.1,0.1-0.2,0.2-0.3c0.2-0.1,0.4,0,0.6,0.1c0.1,0.2,0,0.4-0.2,0.6
				C686.6,548.8,686.4,548.8,686.3,548.5z M687,549.8c-0.1-0.3,0-0.5,0.2-0.6c0.1-0.1,0.2-0.1,0.3,0c0.1,0,0.2,0.1,0.3,0.2
				c0.2,0.2,0.1,0.4-0.1,0.5c-0.1,0.1-0.2,0.1-0.3,0C687.1,549.9,687,549.9,687,549.8z M687.8,551.2c-0.1-0.2-0.1-0.4,0.2-0.6
				c0.1-0.1,0.2-0.1,0.3,0c0.1,0,0.2,0.1,0.2,0.2c0.1,0.2,0.1,0.4-0.1,0.6C688.2,551.5,688,551.4,687.8,551.2z M688.7,552.7
				c-0.1-0.2-0.1-0.4,0.1-0.6c0.2-0.2,0.4-0.1,0.6,0.1c0.1,0.2,0.1,0.4-0.1,0.6C689,552.9,688.8,552.9,688.7,552.7z M689.4,554
				c-0.1-0.1-0.1-0.1,0-0.3c0-0.1,0.1-0.2,0.2-0.3c0.1-0.1,0.2-0.1,0.3,0c0.1,0,0.2,0.1,0.3,0.1c0.1,0.2,0.1,0.4-0.1,0.6
				C689.8,554.3,689.6,554.3,689.4,554z M689.8,556.1h3.6v0.6h-1.7c0,0.1-0.1,0.1-0.1,0.2c-0.2,0.1-0.4,0.1-0.6-0.1c0,0,0,0,0-0.1
				h-1.2L689.8,556.1L689.8,556.1z M690.2,555.4c-0.2-0.2-0.1-0.4,0.2-0.6c0.2-0.1,0.4-0.1,0.6,0.1c0.1,0.3,0,0.5-0.2,0.6
				C690.5,555.6,690.3,555.6,690.2,555.4z M691.6,557.9c-0.1-0.2,0-0.4,0.2-0.6c0.3-0.1,0.4-0.1,0.5,0.2c0.1,0.3,0,0.5-0.1,0.6
				C691.9,558.2,691.7,558.1,691.6,557.9z M692.4,559.1c-0.1-0.1-0.1-0.2-0.1-0.3c0-0.1,0.1-0.2,0.2-0.2c0.2-0.2,0.4-0.1,0.6,0.1
				c0.1,0.3,0,0.5-0.2,0.6c-0.1,0.1-0.1,0.1-0.3,0C692.5,559.3,692.4,559.3,692.4,559.1z M693.1,560.5c-0.1-0.2-0.1-0.4,0.1-0.6
				c0.2-0.2,0.4-0.1,0.6,0.1c0.1,0.2,0,0.4-0.1,0.6C693.4,560.8,693.2,560.8,693.1,560.5z M693.9,561.9c-0.1-0.1-0.1-0.2,0-0.3
				c0-0.1,0.1-0.2,0.2-0.3c0.2-0.2,0.4-0.1,0.6,0.2c0.1,0.1,0.1,0.2,0,0.3c0,0.1-0.1,0.2-0.3,0.3c-0.1,0.1-0.2,0.1-0.3,0
				C694,562.1,694,562.1,693.9,561.9z M694.4,556.1h3.6v0.6h-3.6V556.1z M694.7,563.4c-0.1-0.2-0.1-0.4,0.1-0.6
				c0.2-0.2,0.4-0.1,0.6,0.2c0.2,0.2,0.2,0.4-0.1,0.6C695,563.6,694.8,563.6,694.7,563.4z M695.7,565c-0.2-0.2-0.1-0.4,0.1-0.6
				c0.2-0.1,0.4,0,0.6,0.1c0.1,0.2,0.1,0.4-0.1,0.6C696,565.2,695.8,565.2,695.7,565z M696.4,566.3c-0.1-0.2,0-0.4,0.1-0.6
				c0.2-0.1,0.4,0,0.6,0.2c0.2,0.2,0.1,0.4-0.1,0.5C696.7,566.5,696.5,566.5,696.4,566.3z M697,567.5c-0.1-0.1-0.1-0.2,0-0.3
				c0-0.1,0.1-0.2,0.2-0.3c0.2-0.1,0.4-0.1,0.5,0.1c0.2,0.2,0.2,0.4-0.1,0.6C697.3,567.7,697.1,567.7,697,567.5z M697.7,568.7
				c-0.1-0.1-0.1-0.2,0-0.3c0-0.1,0.1-0.2,0.2-0.3c0.2-0.1,0.4-0.1,0.6,0.1c0.1,0.2,0,0.5-0.2,0.6
				C698.1,569,697.9,568.9,697.7,568.7z M698.7,570.1c-0.1-0.2-0.1-0.4,0.1-0.6c0.1-0.1,0.2-0.1,0.3,0c0.1,0,0.2,0.1,0.3,0.2
				c0.2,0.2,0.1,0.4-0.1,0.6C699,570.4,698.8,570.3,698.7,570.1z M698.9,556.1h3.6v0.6H701c0.2,0.1,0.3,0.2,0.3,0.4
				c0,0.3-0.1,0.4-0.4,0.4s-0.4-0.1-0.4-0.4c0-0.2,0.1-0.4,0.3-0.4H699L698.9,556.1L698.9,556.1z M699.5,571.1
				c0-0.3,0.1-0.4,0.4-0.4s0.4,0.1,0.4,0.4c0,0.3-0.1,0.4-0.4,0.4S699.5,571.4,699.5,571.1z M700.5,546.3c0-0.3,0.1-0.4,0.4-0.4
				c0.3,0,0.4,0.1,0.4,0.4c0,0.3-0.1,0.4-0.4,0.4C700.6,546.7,700.5,546.6,700.5,546.3z M700.5,547.7c0-0.3,0.1-0.4,0.4-0.4
				c0.3,0,0.4,0.1,0.4,0.4s-0.1,0.4-0.4,0.4C700.6,548.1,700.5,547.9,700.5,547.7z M700.5,549.1c0-0.3,0.1-0.4,0.4-0.4
				c0.3,0,0.4,0.1,0.4,0.4c0,0.3-0.1,0.4-0.4,0.4C700.6,549.5,700.5,549.4,700.5,549.1z M700.5,550.7c0-0.3,0.1-0.4,0.4-0.4
				c0.3,0,0.4,0.1,0.4,0.4s-0.1,0.4-0.4,0.4C700.6,551.2,700.5,551,700.5,550.7z M700.5,552.5c0-0.3,0.1-0.4,0.4-0.4
				c0.3,0,0.4,0.1,0.4,0.4s-0.1,0.4-0.4,0.4C700.6,552.9,700.5,552.7,700.5,552.5z M700.5,554.1c0-0.3,0.1-0.4,0.4-0.4
				c0.3,0,0.4,0.1,0.4,0.4c0,0.3-0.1,0.4-0.4,0.4C700.6,554.5,700.5,554.4,700.5,554.1z M700.5,555.6c0-0.3,0.1-0.4,0.4-0.4
				c0.3,0,0.4,0.1,0.4,0.4s-0.1,0.4-0.4,0.4C700.6,556,700.5,555.8,700.5,555.6z M700.5,558.4c0-0.3,0.1-0.4,0.4-0.4
				c0.3,0,0.4,0.1,0.4,0.4s-0.1,0.4-0.4,0.4C700.6,558.9,700.5,558.7,700.5,558.4z M700.5,559.9c0-0.3,0.1-0.4,0.4-0.4
				c0.3,0,0.4,0.1,0.4,0.4c0,0.3-0.1,0.4-0.4,0.4C700.6,560.3,700.5,560.2,700.5,559.9z M700.5,561.5c0-0.3,0.1-0.4,0.4-0.4
				c0.3,0,0.4,0.1,0.4,0.4c0,0.3-0.1,0.4-0.4,0.4C700.6,561.9,700.5,561.8,700.5,561.5z M700.5,563.1c0-0.3,0.1-0.4,0.4-0.4
				c0.3,0,0.4,0.1,0.4,0.4c0,0.3-0.1,0.4-0.4,0.4C700.6,563.6,700.5,563.4,700.5,563.1z M700.5,564.8c0-0.3,0.1-0.4,0.4-0.4
				c0.3,0,0.4,0.1,0.4,0.4c0,0.3-0.1,0.4-0.4,0.4C700.6,565.2,700.5,565,700.5,564.8z M700.5,566.6c0-0.3,0.1-0.4,0.4-0.4
				c0.3,0,0.4,0.1,0.4,0.4c0,0.3-0.1,0.4-0.4,0.4C700.6,567,700.5,566.9,700.5,566.6z M700.5,568.1c0-0.3,0.1-0.4,0.4-0.4
				c0.3,0,0.4,0.1,0.4,0.4c0,0.3-0.1,0.4-0.4,0.4C700.6,568.5,700.5,568.3,700.5,568.1z M700.5,569.5c0-0.3,0.1-0.4,0.4-0.4
				c0.3,0,0.4,0.1,0.4,0.4c0,0.3-0.1,0.4-0.4,0.4C700.6,569.9,700.5,569.7,700.5,569.5z M700.5,570.9c0-0.3,0.1-0.4,0.4-0.4
				c0.3,0,0.4,0.1,0.4,0.4c0,0.3-0.1,0.4-0.4,0.4C700.6,571.3,700.5,571.2,700.5,570.9z M703.6,556.1h1.4v0.6h-1.4V556.1z"/>
			<path fill="#333333" d="M704.3,543.3H727v1.2h-18.4c0.2,0.1,0.2,0.2,0.2,0.4c0,0.3-0.1,0.4-0.4,0.4c-0.3,0-0.4-0.1-0.4-0.4
				c0-0.2,0.1-0.3,0.2-0.4h-3.9L704.3,543.3L704.3,543.3z M704.3,572.4h3.6v-0.1c0-0.3,0.1-0.4,0.4-0.4c0.3,0,0.4,0.1,0.4,0.4
				c0,0.1,0,0.1,0,0.1h0.6c0,0,0-0.1,0-0.2c0-0.3,0.1-0.4,0.4-0.4c0.3,0,0.4,0.1,0.4,0.4c0,0.1,0,0.2-0.1,0.2h0.8c0,0,0-0.1,0-0.2
				c0-0.3,0.1-0.4,0.4-0.4c0.3,0,0.4,0.1,0.4,0.4c0,0.1,0,0.2-0.1,0.2h0.7c0,0,0-0.1,0-0.2c0-0.3,0.1-0.4,0.4-0.4
				c0.3,0,0.4,0.1,0.4,0.4c0,0.1,0,0.2-0.1,0.2h0.7c0,0,0-0.1,0-0.2c0-0.3,0.1-0.4,0.4-0.4c0.3,0,0.4,0.1,0.4,0.4
				c0,0.1,0,0.2-0.1,0.2h0.9c0,0,0-0.1,0-0.2c0-0.3,0.1-0.4,0.4-0.4c0.3,0,0.4,0.1,0.4,0.4c0,0.1,0,0.2-0.1,0.2h1c0,0,0-0.1,0-0.2
				c0-0.3,0.1-0.4,0.4-0.4s0.4,0.1,0.4,0.4c0,0.1,0,0.2-0.1,0.2h0.9c0,0,0-0.1,0-0.2c0-0.3,0.1-0.4,0.4-0.4c0.3,0,0.4,0.1,0.4,0.4
				c0,0.1,0,0.2-0.1,0.2h0.8c0,0,0-0.1,0-0.2c0-0.3,0.1-0.4,0.4-0.4c0.3,0,0.4,0.1,0.4,0.4c0,0.1,0,0.2-0.1,0.2h0.8c0,0,0-0.1,0-0.2
				c0-0.3,0.1-0.4,0.4-0.4c0.3,0,0.4,0.1,0.4,0.4c0,0.1,0,0.2-0.1,0.2h0.7c0,0,0-0.1,0-0.2c0-0.3,0.1-0.4,0.4-0.4s0.4,0.1,0.4,0.4
				c0,0.1,0,0.2-0.1,0.2h3.3v1.2h-22.7L704.3,572.4L704.3,572.4z M704.4,556.1h3.6v0.6h-3.6V556.1z M708,546.3
				c0-0.3,0.1-0.4,0.4-0.4c0.3,0,0.4,0.1,0.4,0.4c0,0.3-0.1,0.4-0.4,0.4C708.1,546.7,708,546.6,708,546.3z M708,547.7
				c0-0.3,0.1-0.4,0.4-0.4c0.3,0,0.4,0.1,0.4,0.4s-0.1,0.4-0.4,0.4C708.1,548.1,708,547.9,708,547.7z M708,549.1
				c0-0.3,0.1-0.4,0.4-0.4c0.3,0,0.4,0.1,0.4,0.4c0,0.3-0.1,0.4-0.4,0.4C708.1,549.5,708,549.4,708,549.1z M708,550.7
				c0-0.3,0.1-0.4,0.4-0.4c0.3,0,0.4,0.1,0.4,0.4s-0.1,0.4-0.4,0.4C708.1,551.2,708,551,708,550.7z M708,552.5
				c0-0.3,0.1-0.4,0.4-0.4c0.3,0,0.4,0.1,0.4,0.4s-0.1,0.4-0.4,0.4C708.1,552.9,708,552.7,708,552.5z M708,554.1
				c0-0.3,0.1-0.4,0.4-0.4c0.3,0,0.4,0.1,0.4,0.4c0,0.3-0.1,0.4-0.4,0.4C708.1,554.5,708,554.4,708,554.1z M708,555.6
				c0-0.3,0.1-0.4,0.4-0.4c0.3,0,0.4,0.1,0.4,0.4s-0.1,0.4-0.4,0.4C708.1,556,708,555.8,708,555.6z M708,557.1
				c0-0.3,0.1-0.4,0.4-0.4c0.3,0,0.4,0.1,0.4,0.4s-0.1,0.4-0.4,0.4C708.1,557.5,708,557.3,708,557.1z M708,558.4
				c0-0.3,0.1-0.4,0.4-0.4c0.3,0,0.4,0.1,0.4,0.4s-0.1,0.4-0.4,0.4C708.1,558.9,708,558.7,708,558.4z M708,559.9
				c0-0.3,0.1-0.4,0.4-0.4c0.3,0,0.4,0.1,0.4,0.4c0,0.3-0.1,0.4-0.4,0.4C708.1,560.3,708,560.2,708,559.9z M708,561.5
				c0-0.3,0.1-0.4,0.4-0.4c0.3,0,0.4,0.1,0.4,0.4c0,0.3-0.1,0.4-0.4,0.4C708.1,561.9,708,561.8,708,561.5z M708,563.1
				c0-0.3,0.1-0.4,0.4-0.4c0.3,0,0.4,0.1,0.4,0.4c0,0.3-0.1,0.4-0.4,0.4C708.1,563.6,708,563.4,708,563.1z M708,564.8
				c0-0.3,0.1-0.4,0.4-0.4c0.3,0,0.4,0.1,0.4,0.4c0,0.3-0.1,0.4-0.4,0.4C708.1,565.2,708,565,708,564.8z M708,566.6
				c0-0.3,0.1-0.4,0.4-0.4c0.3,0,0.4,0.1,0.4,0.4c0,0.3-0.1,0.4-0.4,0.4C708.1,567,708,566.9,708,566.6z M708,568.1
				c0-0.3,0.1-0.4,0.4-0.4c0.3,0,0.4,0.1,0.4,0.4c0,0.3-0.1,0.4-0.4,0.4C708.1,568.5,708,568.3,708,568.1z M708,569.5
				c0-0.3,0.1-0.4,0.4-0.4c0.3,0,0.4,0.1,0.4,0.4c0,0.3-0.1,0.4-0.4,0.4C708.1,569.9,708,569.7,708,569.5z M708,570.9
				c0-0.3,0.1-0.4,0.4-0.4c0.3,0,0.4,0.1,0.4,0.4c0,0.3-0.1,0.4-0.4,0.4C708.1,571.3,708,571.2,708,570.9z M709.1,556.1h3.6v0.6
				h-3.6V556.1z M713.6,556.1h3.6v0.6h-3.6V556.1z M718.3,556.1h3.6v0.6h-3.6V556.1z M722.8,556.1h3.6v0.6h-3.6V556.1z"/>
		</g>
		<g id="Code" enable-background="new    ">
			<path fill="#475656" d="M606.5,33.7c-0.3,0.1-0.9,0.3-1.8,0.3c-1.9,0-3.3-1.1-3.3-3.2c0-2,1.4-3.3,3.5-3.3c0.8,0,1.4,0.2,1.6,0.3
				l-0.2,0.7c-0.3-0.1-0.8-0.3-1.3-0.3c-1.6,0-2.6,0.9-2.6,2.6c0,1.5,0.9,2.5,2.6,2.5c0.5,0,1.1-0.1,1.4-0.3L606.5,33.7z"/>
			<path fill="#475656" d="M613,30.7c0,2.1-1.4,3.3-3.1,3.3c-1.8,0-3-1.3-3-3.2c0-2,1.3-3.3,3.1-3.3C611.8,27.5,613,28.8,613,30.7z
				 M607.9,30.8c0,1.3,0.8,2.5,2.1,2.5c1.4,0,2.1-1.2,2.1-2.6c0-1.2-0.7-2.5-2.1-2.5C608.6,28.2,607.9,29.4,607.9,30.8z"/>
			<path fill="#475656" d="M614.1,27.7c0.5-0.1,1.1-0.1,1.8-0.1c1.2,0,2.1,0.3,2.7,0.8c0.6,0.5,0.9,1.2,0.9,2.2c0,1-0.3,1.9-1,2.4
				c-0.6,0.6-1.6,0.9-2.9,0.9c-0.6,0-1.1,0-1.6-0.1L614.1,27.7L614.1,27.7z M615,33.2c0.2,0,0.5,0,0.9,0c1.8,0,2.8-1,2.8-2.6
				c0-1.5-0.9-2.4-2.7-2.4c-0.4,0-0.8,0-1,0.1L615,33.2L615,33.2z"/>
			<path fill="#475656" d="M624.1,30.9h-2.6v2.3h2.9v0.7h-3.7v-6.2h3.6v0.7h-2.7v2h2.6L624.1,30.9L624.1,30.9z"/>
		</g>
		<g id="HTML" enable-background="new    ">
			<path fill="#475656" d="M602.7,63.7v2.6h3.2v-2.6h0.9v6.2h-0.9V67h-3.2v2.9h-0.9v-6.2L602.7,63.7L602.7,63.7z"/>
			<path fill="#475656" d="M609.5,64.4h-2v-0.7h4.9v0.7h-2v5.6h-0.9V64.4z"/>
			<path fill="#475656" d="M618.7,67.2c0-0.9-0.1-1.9-0.1-2.7h0c-0.2,0.7-0.5,1.5-0.8,2.4l-1.2,3H616l-1.1-3
				c-0.3-0.9-0.6-1.7-0.8-2.4h0c0,0.8-0.1,1.8-0.1,2.8l-0.2,2.7H613l0.5-6.2h1.1l1.1,3c0.3,0.8,0.5,1.5,0.7,2.1h0
				c0.2-0.6,0.4-1.3,0.7-2.1l1.2-3h1.1l0.4,6.2h-0.8L618.7,67.2z"/>
			<path fill="#475656" d="M621.1,63.7h0.9v5.6h2.8v0.7h-3.7V63.7z"/>
		</g>
		<g id="CSS" enable-background="new    ">
			<path fill="#475656" d="M606.5,105.8c-0.3,0.1-0.9,0.3-1.8,0.3c-1.9,0-3.3-1.1-3.3-3.2c0-2,1.4-3.3,3.5-3.3
				c0.8,0,1.4,0.2,1.6,0.3l-0.2,0.7c-0.3-0.1-0.8-0.3-1.3-0.3c-1.6,0-2.6,0.9-2.6,2.6c0,1.5,0.9,2.5,2.6,2.5c0.5,0,1.1-0.1,1.4-0.3
				L606.5,105.8z"/>
			<path fill="#475656" d="M607.4,105c0.4,0.2,0.9,0.4,1.5,0.4c0.9,0,1.4-0.4,1.4-1.1c0-0.6-0.4-0.9-1.3-1.2
				c-1.1-0.4-1.8-0.9-1.8-1.8c0-1,0.9-1.7,2.1-1.7c0.7,0,1.2,0.1,1.5,0.3l-0.2,0.7c-0.2-0.1-0.7-0.3-1.3-0.3c-0.9,0-1.3,0.5-1.3,0.9
				c0,0.6,0.4,0.9,1.3,1.2c1.1,0.4,1.7,0.9,1.7,1.8c0,1-0.8,1.8-2.3,1.8c-0.6,0-1.3-0.2-1.7-0.4L607.4,105z"/>
			<path fill="#475656" d="M612.3,105c0.4,0.2,0.9,0.4,1.5,0.4c0.9,0,1.4-0.4,1.4-1.1c0-0.6-0.4-0.9-1.3-1.2
				c-1.1-0.4-1.8-0.9-1.8-1.8c0-1,0.9-1.7,2.1-1.7c0.7,0,1.2,0.1,1.5,0.3l-0.2,0.7c-0.2-0.1-0.7-0.3-1.3-0.3c-0.9,0-1.3,0.5-1.3,0.9
				c0,0.6,0.4,0.9,1.3,1.2c1.1,0.4,1.7,0.9,1.7,1.8c0,1-0.8,1.8-2.3,1.8c-0.6,0-1.3-0.2-1.7-0.4L612.3,105z"/>
		</g>
		<g id="PHP" enable-background="new    ">
			<path fill="#475656" d="M601.8,135.9c0.4-0.1,1-0.1,1.6-0.1c0.8,0,1.5,0.2,1.9,0.5c0.4,0.3,0.6,0.8,0.6,1.3c0,0.6-0.2,1-0.5,1.3
				c-0.5,0.5-1.2,0.7-2,0.7c-0.3,0-0.5,0-0.7-0.1v2.5h-0.9L601.8,135.9L601.8,135.9z M602.7,138.9c0.2,0,0.4,0.1,0.7,0.1
				c1,0,1.7-0.5,1.7-1.3c0-0.8-0.6-1.2-1.6-1.2c-0.4,0-0.7,0-0.8,0.1L602.7,138.9L602.7,138.9z"/>
			<path fill="#475656" d="M607.9,135.8v2.6h3.2v-2.6h0.9v6.2h-0.9v-2.9h-3.2v2.9h-0.9v-6.2H607.9z"/>
			<path fill="#475656" d="M613.5,135.9c0.4-0.1,1-0.1,1.6-0.1c0.8,0,1.5,0.2,1.9,0.5c0.4,0.3,0.6,0.8,0.6,1.3c0,0.6-0.2,1-0.5,1.3
				c-0.5,0.5-1.2,0.7-2,0.7c-0.3,0-0.5,0-0.7-0.1v2.5h-0.9L613.5,135.9L613.5,135.9z M614.3,138.9c0.2,0,0.4,0.1,0.7,0.1
				c1,0,1.7-0.5,1.7-1.3c0-0.8-0.6-1.2-1.6-1.2c-0.4,0-0.7,0-0.8,0.1L614.3,138.9L614.3,138.9z"/>
		</g>
		<g id="Java" enable-background="new    ">
			<path fill="#475656" d="M603.2,171.9h0.9v4.2c0,1.7-0.9,2.2-2,2.2c-0.3,0-0.7-0.1-0.9-0.1l0.1-0.7c0.2,0.1,0.4,0.1,0.7,0.1
				c0.8,0,1.2-0.3,1.2-1.5L603.2,171.9L603.2,171.9z"/>
			<path fill="#475656" d="M606.5,176.1l-0.7,2H605l2.3-6.2h1l2.3,6.2h-0.9l-0.7-2H606.5z M608.7,175.5l-0.6-1.8
				c-0.1-0.4-0.2-0.8-0.3-1.1h0c-0.1,0.4-0.2,0.8-0.3,1.1l-0.7,1.8H608.7z"/>
			<path fill="#475656" d="M612.4,178.1l-2.2-6.2h0.9l1,3.1c0.3,0.8,0.5,1.6,0.7,2.3h0c0.2-0.7,0.5-1.5,0.8-2.3l1.1-3.1h0.9
				l-2.4,6.2H612.4z"/>
			<path fill="#475656" d="M617,176.1l-0.7,2h-0.9l2.3-6.2h1l2.3,6.2h-0.9l-0.7-2H617z M619.2,175.5l-0.7-1.8
				c-0.1-0.4-0.2-0.8-0.3-1.1h0c-0.1,0.4-0.2,0.8-0.3,1.1l-0.7,1.8H619.2z"/>
		</g>
		<g id="Javascript" enable-background="new    ">
			<path fill="#475656" d="M603.2,207.9h0.9v4.2c0,1.7-0.9,2.2-2,2.2c-0.3,0-0.7-0.1-0.9-0.1l0.1-0.7c0.2,0.1,0.4,0.1,0.7,0.1
				c0.8,0,1.2-0.3,1.2-1.5L603.2,207.9L603.2,207.9z"/>
			<path fill="#475656" d="M606.5,212.2l-0.7,2H605l2.3-6.2h1l2.3,6.2h-0.9l-0.7-2H606.5z M608.7,211.6l-0.6-1.8
				c-0.1-0.4-0.2-0.8-0.3-1.1h0c-0.1,0.4-0.2,0.8-0.3,1.1l-0.7,1.8H608.7z"/>
			<path fill="#475656" d="M612.4,214.2l-2.2-6.2h0.9l1,3.1c0.3,0.8,0.5,1.6,0.7,2.3h0c0.2-0.7,0.5-1.5,0.8-2.3l1.1-3.1h0.9
				l-2.4,6.2H612.4z"/>
			<path fill="#475656" d="M617,212.2l-0.7,2h-0.9l2.3-6.2h1l2.3,6.2h-0.9l-0.7-2H617z M619.2,211.6l-0.7-1.8
				c-0.1-0.4-0.2-0.8-0.3-1.1h0c-0.1,0.4-0.2,0.8-0.3,1.1l-0.7,1.8H619.2z"/>
			<path fill="#475656" d="M621.8,213.2c0.4,0.2,0.9,0.4,1.5,0.4c0.9,0,1.4-0.4,1.4-1.1c0-0.6-0.4-0.9-1.3-1.2
				c-1.1-0.4-1.8-0.9-1.8-1.8c0-1,0.9-1.7,2.1-1.7c0.7,0,1.2,0.1,1.5,0.3l-0.2,0.7c-0.2-0.1-0.7-0.3-1.3-0.3c-0.9,0-1.3,0.5-1.3,0.9
				c0,0.6,0.4,0.9,1.3,1.2c1.1,0.4,1.7,0.9,1.7,1.8c0,1-0.8,1.8-2.3,1.8c-0.6,0-1.3-0.2-1.7-0.4L621.8,213.2z"/>
			<path fill="#475656" d="M631.4,214c-0.3,0.1-0.9,0.3-1.8,0.3c-1.9,0-3.3-1.1-3.3-3.2c0-2,1.4-3.3,3.5-3.3c0.8,0,1.4,0.2,1.6,0.3
				l-0.2,0.7c-0.3-0.1-0.8-0.3-1.3-0.3c-1.6,0-2.6,0.9-2.6,2.6c0,1.5,0.9,2.5,2.6,2.5c0.5,0,1.1-0.1,1.4-0.3L631.4,214z"/>
			<path fill="#475656" d="M632.5,208c0.4-0.1,1.1-0.1,1.6-0.1c0.9,0,1.5,0.2,1.9,0.5c0.3,0.3,0.5,0.7,0.5,1.2
				c0,0.8-0.6,1.4-1.3,1.6v0c0.5,0.2,0.8,0.6,1,1.3c0.2,0.9,0.4,1.5,0.5,1.7H636c-0.1-0.2-0.3-0.7-0.4-1.5c-0.2-0.9-0.6-1.2-1.3-1.2
				h-0.8v2.7h-0.9L632.5,208L632.5,208z M633.4,210.9h0.9c0.9,0,1.5-0.5,1.5-1.2c0-0.8-0.6-1.2-1.5-1.2c-0.4,0-0.7,0-0.8,0.1
				L633.4,210.9L633.4,210.9z"/>
			<path fill="#475656" d="M638.7,207.9v6.2h-0.9v-6.2H638.7z"/>
			<path fill="#475656" d="M640.2,208c0.4-0.1,1-0.1,1.6-0.1c0.8,0,1.5,0.2,1.9,0.5c0.4,0.3,0.6,0.8,0.6,1.3c0,0.6-0.2,1-0.5,1.3
				c-0.5,0.5-1.2,0.7-2,0.7c-0.3,0-0.5,0-0.7-0.1v2.5h-0.9V208L640.2,208z M641,211c0.2,0,0.4,0.1,0.7,0.1c1,0,1.7-0.5,1.7-1.3
				c0-0.8-0.6-1.2-1.6-1.2c-0.4,0-0.7,0-0.8,0.1V211z"/>
			<path fill="#475656" d="M646.7,208.6h-2v-0.7h4.9v0.7h-2v5.6h-0.9V208.6z"/>
		</g>
		<g id="MySQL" enable-background="new    ">
			<path fill="#475656" d="M607.4,244.5c0-0.9-0.1-1.9-0.1-2.7h0c-0.2,0.7-0.5,1.5-0.8,2.4l-1.2,3h-0.7l-1.1-3
				c-0.3-0.9-0.6-1.7-0.8-2.4h0c0,0.8-0.1,1.8-0.1,2.8l-0.2,2.7h-0.8l0.5-6.2h1.1l1.1,3c0.3,0.8,0.5,1.5,0.7,2.1h0
				c0.2-0.6,0.4-1.3,0.7-2.1l1.2-3h1.1l0.4,6.2h-0.8L607.4,244.5z"/>
			<path fill="#475656" d="M611.2,247.2v-2.6l-2.1-3.6h1l0.9,1.7c0.3,0.5,0.5,0.9,0.7,1.3h0c0.2-0.4,0.4-0.8,0.7-1.3l1-1.7h1
				l-2.2,3.6v2.7L611.2,247.2L611.2,247.2z"/>
			<path fill="#475656" d="M614.8,246.2c0.4,0.2,0.9,0.4,1.5,0.4c0.9,0,1.4-0.4,1.4-1.1c0-0.6-0.4-0.9-1.3-1.2
				c-1.1-0.4-1.8-0.9-1.8-1.8c0-1,0.9-1.7,2.1-1.7c0.7,0,1.2,0.1,1.5,0.3l-0.2,0.7c-0.2-0.1-0.7-0.3-1.3-0.3c-0.9,0-1.3,0.5-1.3,0.9
				c0,0.6,0.4,0.9,1.3,1.2c1.1,0.4,1.7,0.9,1.7,1.8c0,1-0.8,1.8-2.3,1.8c-0.6,0-1.3-0.2-1.7-0.4L614.8,246.2z"/>
			<path fill="#475656" d="M625.3,248.1c-0.9-0.2-1.8-0.5-2.5-0.7c-0.1,0-0.3-0.1-0.4-0.1c-1.6-0.1-2.9-1.1-2.9-3.2
				c0-2,1.3-3.3,3.1-3.3c1.8,0,3,1.3,3,3.2c0,1.6-0.8,2.6-1.9,3v0c0.7,0.2,1.4,0.3,1.9,0.4L625.3,248.1z M624.6,244.1
				c0-1.3-0.7-2.5-2.1-2.5c-1.4,0-2.2,1.3-2.1,2.6c0,1.3,0.8,2.5,2.1,2.5C623.8,246.7,624.6,245.5,624.6,244.1z"/>
			<path fill="#475656" d="M626.6,241h0.9v5.6h2.8v0.7h-3.7V241z"/>
		</g>
		<g id="Graphisme" enable-background="new    ">
			<path fill="#475656" d="M606.8,286.6c-0.4,0.1-1.1,0.3-2,0.3c-1,0-1.8-0.2-2.5-0.8c-0.6-0.5-0.9-1.4-0.9-2.3
				c0-1.9,1.4-3.2,3.6-3.2c0.8,0,1.4,0.2,1.7,0.3l-0.2,0.7c-0.4-0.1-0.8-0.3-1.5-0.3c-1.6,0-2.7,0.9-2.7,2.5c0,1.6,1,2.5,2.6,2.5
				c0.6,0,0.9-0.1,1.1-0.2v-1.9h-1.4v-0.6h2.2V286.6L606.8,286.6z"/>
			<path fill="#475656" d="M608.1,280.7c0.4-0.1,1.1-0.1,1.6-0.1c0.9,0,1.5,0.2,1.9,0.5c0.3,0.3,0.5,0.7,0.5,1.2
				c0,0.8-0.6,1.4-1.3,1.6v0c0.5,0.2,0.8,0.6,1,1.3c0.2,0.9,0.4,1.5,0.5,1.7h-0.9c-0.1-0.2-0.3-0.7-0.4-1.5
				c-0.2-0.9-0.6-1.2-1.3-1.2H609v2.7h-0.9L608.1,280.7L608.1,280.7z M609,283.5h0.9c0.9,0,1.5-0.5,1.5-1.2c0-0.8-0.6-1.2-1.5-1.2
				c-0.4,0-0.7,0-0.8,0.1L609,283.5L609,283.5z"/>
			<path fill="#475656" d="M614.6,284.9l-0.7,2H613l2.3-6.2h1l2.3,6.2h-0.9l-0.7-2H614.6z M616.7,284.3l-0.7-1.8
				c-0.1-0.4-0.2-0.8-0.3-1.1h0c-0.1,0.4-0.2,0.8-0.3,1.1l-0.6,1.8H616.7z"/>
			<path fill="#475656" d="M619.5,280.7c0.4-0.1,1-0.1,1.6-0.1c0.8,0,1.5,0.2,1.9,0.5c0.4,0.3,0.6,0.8,0.6,1.3c0,0.6-0.2,1-0.5,1.3
				c-0.5,0.5-1.2,0.7-2,0.7c-0.3,0-0.5,0-0.7-0.1v2.5h-0.9V280.7L619.5,280.7z M620.4,283.7c0.2,0,0.4,0.1,0.7,0.1
				c1,0,1.7-0.5,1.7-1.3c0-0.8-0.6-1.2-1.6-1.2c-0.4,0-0.7,0-0.8,0.1V283.7z"/>
			<path fill="#475656" d="M625.6,280.6v2.6h3.2v-2.6h0.9v6.2h-0.9v-2.9h-3.2v2.9h-0.9v-6.2H625.6z"/>
			<path fill="#475656" d="M632,280.6v6.2h-0.9v-6.2H632z"/>
			<path fill="#475656" d="M633.4,285.9c0.4,0.2,0.9,0.4,1.5,0.4c0.9,0,1.4-0.4,1.4-1.1c0-0.6-0.4-0.9-1.3-1.2
				c-1.1-0.4-1.8-0.9-1.8-1.8c0-1,0.9-1.7,2.1-1.7c0.7,0,1.2,0.1,1.5,0.3l-0.2,0.7c-0.2-0.1-0.7-0.3-1.3-0.3c-0.9,0-1.3,0.5-1.3,0.9
				c0,0.6,0.4,0.9,1.3,1.2c1.1,0.4,1.7,0.9,1.7,1.8c0,1-0.8,1.8-2.3,1.8c-0.6,0-1.3-0.2-1.7-0.4L633.4,285.9z"/>
			<path fill="#475656" d="M644,284.1c0-0.9-0.1-1.9-0.1-2.7h0c-0.2,0.7-0.5,1.5-0.8,2.4l-1.2,3h-0.6l-1.1-3
				c-0.3-0.9-0.6-1.7-0.8-2.4h0c0,0.8-0.1,1.8-0.1,2.8l-0.2,2.7h-0.8l0.5-6.2h1.1l1.1,3c0.3,0.8,0.5,1.5,0.7,2.1h0
				c0.2-0.6,0.4-1.3,0.7-2.1l1.2-3h1.1l0.4,6.2h-0.8L644,284.1z"/>
			<path fill="#475656" d="M649.8,283.9h-2.6v2.3h2.9v0.7h-3.7v-6.2h3.6v0.7h-2.7v2h2.6L649.8,283.9L649.8,283.9z"/>
		</g>
		<g id="Photoshop" enable-background="new    ">
			<path fill="#475656" d="M601.8,316.7c0.4-0.1,1-0.1,1.6-0.1c0.8,0,1.5,0.2,1.9,0.5c0.4,0.3,0.6,0.8,0.6,1.3c0,0.6-0.2,1-0.5,1.3
				c-0.5,0.5-1.2,0.7-2,0.7c-0.3,0-0.5,0-0.7-0.1v2.5h-0.9V316.7L601.8,316.7z M602.6,319.8c0.2,0,0.4,0.1,0.7,0.1
				c1,0,1.7-0.5,1.7-1.3c0-0.8-0.6-1.2-1.6-1.2c-0.4,0-0.7,0-0.8,0.1V319.8z"/>
			<path fill="#475656" d="M607.9,316.7v2.6h3.2v-2.6h0.9v6.2h-0.9V320h-3.2v2.9H607v-6.2H607.9z"/>
			<path fill="#475656" d="M619.1,319.7c0,2.1-1.4,3.3-3.1,3.3c-1.8,0-3-1.3-3-3.2c0-2,1.3-3.3,3.1-3.3
				C617.9,316.6,619.1,317.9,619.1,319.7z M614,319.8c0,1.3,0.8,2.5,2.1,2.5c1.4,0,2.1-1.2,2.1-2.6c0-1.2-0.7-2.5-2.1-2.5
				C614.7,317.2,614,318.5,614,319.8z"/>
			<path fill="#475656" d="M621.2,317.4h-2v-0.7h4.9v0.7h-2v5.6h-0.9L621.2,317.4L621.2,317.4z"/>
			<path fill="#475656" d="M630.3,319.7c0,2.1-1.4,3.3-3.1,3.3c-1.8,0-3-1.3-3-3.2c0-2,1.3-3.3,3.1-3.3
				C629.1,316.6,630.3,317.9,630.3,319.7z M625.1,319.8c0,1.3,0.8,2.5,2.1,2.5c1.4,0,2.1-1.2,2.1-2.6c0-1.2-0.7-2.5-2.1-2.5
				C625.8,317.2,625.1,318.5,625.1,319.8z"/>
			<path fill="#475656" d="M631.3,321.9c0.4,0.2,0.9,0.4,1.5,0.4c0.9,0,1.4-0.4,1.4-1.1c0-0.6-0.4-0.9-1.3-1.2
				c-1.1-0.4-1.8-0.9-1.8-1.8c0-1,0.9-1.7,2.1-1.7c0.7,0,1.2,0.1,1.5,0.3l-0.2,0.7c-0.2-0.1-0.7-0.3-1.3-0.3c-0.9,0-1.3,0.5-1.3,0.9
				c0,0.6,0.4,0.9,1.3,1.2c1.1,0.4,1.7,0.9,1.7,1.8c0,1-0.8,1.8-2.3,1.8c-0.6,0-1.3-0.2-1.7-0.4L631.3,321.9z"/>
			<path fill="#475656" d="M637.1,316.7v2.6h3.2v-2.6h0.9v6.2h-0.9V320h-3.2v2.9h-0.9v-6.2H637.1z"/>
			<path fill="#475656" d="M648.4,319.7c0,2.1-1.4,3.3-3.1,3.3c-1.8,0-3-1.3-3-3.2c0-2,1.3-3.3,3.1-3.3
				C647.2,316.6,648.4,317.9,648.4,319.7z M643.2,319.8c0,1.3,0.8,2.5,2.1,2.5c1.4,0,2.1-1.2,2.1-2.6c0-1.2-0.7-2.5-2.1-2.5
				C643.9,317.2,643.2,318.5,643.2,319.8z"/>
			<path fill="#475656" d="M649.5,316.7c0.4-0.1,1-0.1,1.6-0.1c0.8,0,1.5,0.2,1.9,0.5c0.4,0.3,0.6,0.8,0.6,1.3c0,0.6-0.2,1-0.5,1.3
				c-0.5,0.5-1.2,0.7-2,0.7c-0.3,0-0.5,0-0.7-0.1v2.5h-0.9L649.5,316.7L649.5,316.7z M650.3,319.8c0.2,0,0.4,0.1,0.7,0.1
				c1,0,1.7-0.5,1.7-1.3c0-0.8-0.6-1.2-1.6-1.2c-0.4,0-0.7,0-0.8,0.1V319.8z"/>
		</g>
		<g id="Illustrator" enable-background="new    ">
			<path fill="#475656" d="M602.6,352.7v6.2h-0.9v-6.2H602.6z"/>
			<path fill="#475656" d="M604.1,352.7h0.9v5.6h2.8v0.7h-3.7V352.7L604.1,352.7z"/>
			<path fill="#475656" d="M608.8,352.7h0.9v5.6h2.8v0.7h-3.7V352.7z"/>
			<path fill="#475656" d="M613.9,352.7v3.7c0,1.4,0.7,2,1.5,2c1,0,1.6-0.6,1.6-2v-3.7h0.9v3.6c0,1.9-1.1,2.7-2.5,2.7
				c-1.4,0-2.4-0.7-2.4-2.7v-3.7H613.9L613.9,352.7z"/>
			<path fill="#475656" d="M619.3,358c0.4,0.2,0.9,0.4,1.5,0.4c0.9,0,1.4-0.4,1.4-1.1c0-0.6-0.4-0.9-1.3-1.2
				c-1.1-0.4-1.8-0.9-1.8-1.8c0-1,0.9-1.7,2.1-1.7c0.7,0,1.2,0.1,1.5,0.3l-0.2,0.7c-0.2-0.1-0.7-0.3-1.3-0.3c-0.9,0-1.3,0.5-1.3,0.9
				c0,0.6,0.4,0.9,1.3,1.2c1.1,0.4,1.7,0.9,1.7,1.8c0,1-0.8,1.8-2.3,1.8c-0.6,0-1.3-0.2-1.7-0.4L619.3,358z"/>
			<path fill="#475656" d="M625.6,353.4h-2v-0.7h4.9v0.7h-2v5.6h-0.9V353.4z"/>
			<path fill="#475656" d="M629.2,352.8c0.4-0.1,1.1-0.1,1.6-0.1c0.9,0,1.5,0.2,1.9,0.5c0.3,0.3,0.5,0.7,0.5,1.2
				c0,0.8-0.6,1.4-1.3,1.6v0c0.5,0.2,0.8,0.6,1,1.3c0.2,0.9,0.4,1.5,0.5,1.7h-0.9c-0.1-0.2-0.3-0.7-0.4-1.5
				c-0.2-0.9-0.6-1.2-1.3-1.2h-0.8v2.7h-0.9L629.2,352.8L629.2,352.8z M630.1,355.7h0.9c0.9,0,1.5-0.5,1.5-1.2
				c0-0.8-0.6-1.2-1.5-1.2c-0.4,0-0.7,0-0.8,0.1V355.7L630.1,355.7z"/>
			<path fill="#475656" d="M635.6,357l-0.7,2H634l2.3-6.2h1l2.3,6.2h-0.9l-0.7-2H635.6z M637.8,356.4l-0.6-1.8
				c-0.1-0.4-0.2-0.8-0.3-1.1h0c-0.1,0.4-0.2,0.8-0.3,1.1l-0.7,1.8L637.8,356.4L637.8,356.4z"/>
			<path fill="#475656" d="M641.1,353.4h-2v-0.7h4.9v0.7h-2v5.6h-0.9L641.1,353.4L641.1,353.4z"/>
			<path fill="#475656" d="M650.1,355.8c0,2.1-1.4,3.3-3.1,3.3c-1.8,0-3-1.3-3-3.2c0-2,1.3-3.3,3.1-3.3
				C649,352.6,650.1,353.9,650.1,355.8z M645,355.9c0,1.3,0.8,2.5,2.1,2.5c1.4,0,2.1-1.2,2.1-2.6c0-1.2-0.7-2.5-2.1-2.5
				C645.7,353.3,645,354.5,645,355.9z"/>
			<path fill="#475656" d="M651.2,352.8c0.4-0.1,1.1-0.1,1.6-0.1c0.9,0,1.5,0.2,1.9,0.5c0.3,0.3,0.5,0.7,0.5,1.2
				c0,0.8-0.6,1.4-1.3,1.6v0c0.5,0.2,0.8,0.6,1,1.3c0.2,0.9,0.4,1.5,0.5,1.7h-0.9c-0.1-0.2-0.3-0.7-0.4-1.5
				c-0.2-0.9-0.6-1.2-1.3-1.2h-0.8v2.7h-0.9L651.2,352.8L651.2,352.8z M652.1,355.7h0.9c0.9,0,1.5-0.5,1.5-1.2
				c0-0.8-0.6-1.2-1.5-1.2c-0.4,0-0.7,0-0.8,0.1V355.7L652.1,355.7z"/>
		</g>
		<g id="In_Design" enable-background="new    ">
			<path fill="#475656" d="M602.6,388.8v6.2h-0.9v-6.2H602.6z"/>
			<path fill="#475656" d="M604.1,395v-6.2h0.9l2.1,3.2c0.5,0.7,0.9,1.4,1.2,2l0,0c-0.1-0.8-0.1-1.6-0.1-2.6v-2.6h0.8v6.2h-0.9
				l-2.1-3.2c-0.5-0.7-0.9-1.4-1.2-2.1l0,0c0,0.8,0.1,1.5,0.1,2.6v2.7L604.1,395L604.1,395z"/>
			<path fill="#475656" d="M610.6,388.9c0.5-0.1,1.1-0.1,1.8-0.1c1.2,0,2.1,0.3,2.7,0.8c0.6,0.5,0.9,1.2,0.9,2.2c0,1-0.3,1.9-1,2.4
				c-0.6,0.6-1.6,0.9-2.9,0.9c-0.6,0-1.1,0-1.6-0.1L610.6,388.9L610.6,388.9z M611.5,394.4c0.2,0,0.5,0,0.9,0c1.8,0,2.8-1,2.8-2.6
				c0-1.5-0.9-2.4-2.7-2.4c-0.4,0-0.8,0-1,0.1V394.4z"/>
			<path fill="#475656" d="M620.6,392.1H618v2.3h2.9v0.7h-3.7v-6.2h3.6v0.7H618v2h2.6L620.6,392.1L620.6,392.1z"/>
			<path fill="#475656" d="M621.9,394.1c0.4,0.2,0.9,0.4,1.5,0.4c0.9,0,1.4-0.4,1.4-1.1c0-0.6-0.4-0.9-1.3-1.2
				c-1.1-0.4-1.8-0.9-1.8-1.8c0-1,0.9-1.7,2.1-1.7c0.7,0,1.2,0.1,1.5,0.3l-0.2,0.7c-0.2-0.1-0.7-0.3-1.3-0.3c-0.9,0-1.3,0.5-1.3,0.9
				c0,0.6,0.4,0.9,1.3,1.2c1.1,0.4,1.7,0.9,1.7,1.8c0,1-0.8,1.8-2.3,1.8c-0.6,0-1.3-0.2-1.7-0.4L621.9,394.1z"/>
			<path fill="#475656" d="M627.7,388.8v6.2h-0.9v-6.2H627.7z"/>
			<path fill="#475656" d="M634.3,394.8c-0.4,0.1-1.1,0.3-2,0.3c-1,0-1.8-0.2-2.5-0.8c-0.6-0.5-0.9-1.4-0.9-2.3
				c0-1.9,1.4-3.2,3.6-3.2c0.8,0,1.4,0.2,1.7,0.3l-0.2,0.7c-0.4-0.1-0.8-0.3-1.5-0.3c-1.6,0-2.7,0.9-2.7,2.5c0,1.6,1,2.5,2.6,2.5
				c0.6,0,0.9-0.1,1.1-0.2v-1.9h-1.4v-0.6h2.2V394.8L634.3,394.8z"/>
			<path fill="#475656" d="M635.6,395v-6.2h0.9l2.1,3.2c0.5,0.7,0.9,1.4,1.2,2l0,0c-0.1-0.8-0.1-1.6-0.1-2.6v-2.6h0.8v6.2h-0.9
				l-2.1-3.2c-0.5-0.7-0.9-1.4-1.2-2.1l0,0c0,0.8,0.1,1.5,0.1,2.6v2.7L635.6,395L635.6,395z"/>
			<path fill="#475656" d="M645.5,392.1h-2.6v2.3h2.9v0.7h-3.7v-6.2h3.6v0.7h-2.7v2h2.6L645.5,392.1L645.5,392.1z"/>
		</g>
		<g id="Premier_Pro" enable-background="new    ">
			<path fill="#475656" d="M601.8,424.9c0.4-0.1,1-0.1,1.6-0.1c0.8,0,1.5,0.2,1.9,0.5c0.4,0.3,0.6,0.8,0.6,1.3c0,0.6-0.2,1-0.5,1.3
				c-0.5,0.5-1.2,0.7-2,0.7c-0.3,0-0.5,0-0.7-0.1v2.5h-0.9V424.9L601.8,424.9z M602.6,427.9c0.2,0,0.4,0.1,0.7,0.1
				c1,0,1.7-0.5,1.7-1.3c0-0.8-0.6-1.2-1.6-1.2c-0.4,0-0.7,0-0.8,0.1V427.9z"/>
			<path fill="#475656" d="M607,424.9c0.4-0.1,1.1-0.1,1.6-0.1c0.9,0,1.5,0.2,1.9,0.5c0.3,0.3,0.5,0.7,0.5,1.2
				c0,0.8-0.6,1.4-1.3,1.6v0c0.5,0.2,0.8,0.6,1,1.3c0.2,0.9,0.4,1.5,0.5,1.7h-0.9c-0.1-0.2-0.3-0.7-0.4-1.5
				c-0.2-0.9-0.6-1.2-1.3-1.2h-0.8v2.7H607L607,424.9L607,424.9z M607.9,427.8h0.9c0.9,0,1.5-0.5,1.5-1.2c0-0.8-0.6-1.2-1.5-1.2
				c-0.4,0-0.7,0-0.8,0.1L607.9,427.8L607.9,427.8z"/>
			<path fill="#475656" d="M615.7,428.2h-2.6v2.3h2.9v0.7h-3.7v-6.2h3.6v0.7h-2.7v2h2.6L615.7,428.2L615.7,428.2z"/>
			<path fill="#475656" d="M622.8,428.4c0-0.9-0.1-1.9-0.1-2.7h0c-0.2,0.7-0.5,1.5-0.8,2.4l-1.2,3H620l-1.1-3
				c-0.3-0.9-0.6-1.7-0.8-2.4h0c0,0.8-0.1,1.8-0.1,2.8l-0.2,2.7H617l0.5-6.2h1.1l1.1,3c0.3,0.8,0.5,1.5,0.7,2.1h0
				c0.2-0.6,0.4-1.3,0.7-2.1l1.2-3h1.1l0.4,6.2h-0.8L622.8,428.4z"/>
			<path fill="#475656" d="M625.9,424.9v6.2h-0.9v-6.2H625.9z"/>
			<path fill="#475656" d="M630.9,428.2h-2.6v2.3h2.9v0.7h-3.7v-6.2h3.6v0.7h-2.7v2h2.6L630.9,428.2L630.9,428.2z"/>
			<path fill="#475656" d="M632.3,424.9c0.4-0.1,1.1-0.1,1.6-0.1c0.9,0,1.5,0.2,1.9,0.5c0.3,0.3,0.5,0.7,0.5,1.2
				c0,0.8-0.6,1.4-1.3,1.6v0c0.5,0.2,0.8,0.6,1,1.3c0.2,0.9,0.4,1.5,0.5,1.7h-0.9c-0.1-0.2-0.3-0.7-0.4-1.5
				c-0.2-0.9-0.6-1.2-1.3-1.2h-0.8v2.7h-0.9L632.3,424.9L632.3,424.9z M633.1,427.8h0.9c0.9,0,1.5-0.5,1.5-1.2
				c0-0.8-0.6-1.2-1.5-1.2c-0.4,0-0.7,0-0.8,0.1V427.8L633.1,427.8z"/>
			<path fill="#475656" d="M639.7,424.9c0.4-0.1,1-0.1,1.6-0.1c0.8,0,1.5,0.2,1.9,0.5c0.4,0.3,0.6,0.8,0.6,1.3c0,0.6-0.2,1-0.5,1.3
				c-0.5,0.5-1.2,0.7-2,0.7c-0.3,0-0.5,0-0.7-0.1v2.5h-0.9V424.9L639.7,424.9z M640.5,427.9c0.2,0,0.4,0.1,0.7,0.1
				c1,0,1.7-0.5,1.7-1.3c0-0.8-0.6-1.2-1.6-1.2c-0.4,0-0.7,0-0.8,0.1V427.9z"/>
			<path fill="#475656" d="M644.9,424.9c0.4-0.1,1.1-0.1,1.6-0.1c0.9,0,1.5,0.2,1.9,0.5c0.3,0.3,0.5,0.7,0.5,1.2
				c0,0.8-0.6,1.4-1.3,1.6v0c0.5,0.2,0.8,0.6,1,1.3c0.2,0.9,0.4,1.5,0.5,1.7h-0.9c-0.1-0.2-0.3-0.7-0.4-1.5
				c-0.2-0.9-0.6-1.2-1.3-1.2h-0.8v2.7h-0.9L644.9,424.9L644.9,424.9z M645.8,427.8h0.9c0.9,0,1.5-0.5,1.5-1.2
				c0-0.8-0.6-1.2-1.5-1.2c-0.4,0-0.7,0-0.8,0.1L645.8,427.8L645.8,427.8z"/>
			<path fill="#475656" d="M655.9,427.9c0,2.1-1.4,3.3-3.1,3.3c-1.8,0-3-1.3-3-3.2c0-2,1.3-3.3,3.1-3.3
				C654.7,424.8,655.9,426.1,655.9,427.9z M650.8,428c0,1.3,0.8,2.5,2.1,2.5c1.4,0,2.1-1.2,2.1-2.6c0-1.2-0.7-2.5-2.1-2.5
				C651.5,425.4,650.8,426.6,650.8,428z"/>
		</g>
		<g id="After_Effect" enable-background="new    ">
			<path fill="#475656" d="M602.8,465.2l-0.7,2h-0.9l2.3-6.2h1l2.3,6.2h-0.9l-0.7-2H602.8z M605,464.6l-0.6-1.8
				c-0.1-0.4-0.2-0.8-0.3-1.1h0c-0.1,0.4-0.2,0.8-0.3,1.1l-0.7,1.8H605z"/>
			<path fill="#475656" d="M607.8,460.9h3.6v0.7h-2.7v2.1h2.5v0.7h-2.5v2.8h-0.9V460.9z"/>
			<path fill="#475656" d="M613.9,461.6h-2v-0.7h4.9v0.7h-2v5.6h-0.9L613.9,461.6L613.9,461.6z"/>
			<path fill="#475656" d="M620.9,464.2h-2.6v2.3h2.9v0.7h-3.7v-6.2h3.6v0.7h-2.7v2h2.6L620.9,464.2L620.9,464.2z"/>
			<path fill="#475656" d="M622.3,461c0.4-0.1,1.1-0.1,1.6-0.1c0.9,0,1.5,0.2,1.9,0.5c0.3,0.3,0.5,0.7,0.5,1.2
				c0,0.8-0.6,1.4-1.3,1.6v0c0.5,0.2,0.8,0.6,1,1.3c0.2,0.9,0.4,1.5,0.5,1.7h-0.9c-0.1-0.2-0.3-0.7-0.4-1.5
				c-0.2-0.9-0.6-1.2-1.3-1.2h-0.8v2.7h-0.9L622.3,461L622.3,461z M623.2,463.9h0.9c0.9,0,1.5-0.5,1.5-1.2c0-0.8-0.6-1.2-1.5-1.2
				c-0.4,0-0.7,0-0.8,0.1L623.2,463.9L623.2,463.9z"/>
			<path fill="#475656" d="M633.2,464.2h-2.6v2.3h2.9v0.7h-3.7v-6.2h3.6v0.7h-2.7v2h2.6L633.2,464.2L633.2,464.2z"/>
			<path fill="#475656" d="M634.6,460.9h3.6v0.7h-2.7v2.1h2.5v0.7h-2.5v2.8h-0.9V460.9z"/>
			<path fill="#475656" d="M639.4,460.9h3.6v0.7h-2.7v2.1h2.5v0.7h-2.5v2.8h-0.9V460.9z"/>
			<path fill="#475656" d="M647.6,464.2H645v2.3h2.9v0.7h-3.7v-6.2h3.6v0.7H645v2h2.6L647.6,464.2L647.6,464.2z"/>
			<path fill="#475656" d="M653.7,467c-0.3,0.1-0.9,0.3-1.8,0.3c-1.9,0-3.3-1.1-3.3-3.2c0-2,1.4-3.3,3.5-3.3c0.8,0,1.4,0.2,1.6,0.3
				l-0.2,0.7c-0.3-0.1-0.8-0.3-1.3-0.3c-1.6,0-2.6,0.9-2.6,2.6c0,1.5,0.9,2.5,2.6,2.5c0.5,0,1.1-0.1,1.4-0.3L653.7,467z"/>
			<path fill="#475656" d="M656.3,461.6h-2v-0.7h4.9v0.7h-2v5.6h-0.9L656.3,461.6L656.3,461.6z"/>
		</g>
		<g id="Flash_Builder" enable-background="new    ">
			<path fill="#475656" d="M601.8,497h3.6v0.7h-2.7v2.1h2.5v0.7h-2.5v2.8h-0.9V497z"/>
			<path fill="#475656" d="M606.6,497h0.9v5.6h2.8v0.7h-3.7V497z"/>
			<path fill="#475656" d="M612.3,501.3l-0.7,2h-0.9l2.3-6.2h1l2.3,6.2h-0.9l-0.7-2H612.3z M614.5,500.6l-0.6-1.8
				c-0.1-0.4-0.2-0.8-0.3-1.1h0c-0.1,0.4-0.2,0.8-0.3,1.1l-0.7,1.8L614.5,500.6L614.5,500.6z"/>
			<path fill="#475656" d="M617.1,502.2c0.4,0.2,0.9,0.4,1.5,0.4c0.9,0,1.4-0.4,1.4-1.1c0-0.6-0.4-0.9-1.3-1.2
				c-1.1-0.4-1.8-0.9-1.8-1.8c0-1,0.9-1.7,2.1-1.7c0.7,0,1.2,0.1,1.5,0.3l-0.2,0.7c-0.2-0.1-0.7-0.3-1.3-0.3c-0.9,0-1.3,0.5-1.3,0.9
				c0,0.6,0.4,0.9,1.3,1.2c1.1,0.4,1.7,0.9,1.7,1.8c0,1-0.8,1.8-2.3,1.8c-0.6,0-1.3-0.2-1.7-0.4L617.1,502.2z"/>
			<path fill="#475656" d="M623,497v2.6h3.2V497h0.9v6.2h-0.9v-2.9H623v2.9h-0.9V497H623z"/>
			<path fill="#475656" d="M630.6,497.1c0.4-0.1,1-0.1,1.6-0.1c0.9,0,1.4,0.1,1.8,0.5c0.3,0.2,0.6,0.6,0.6,1.1
				c0,0.6-0.4,1.1-1.1,1.4v0c0.6,0.1,1.4,0.6,1.4,1.6c0,0.5-0.2,0.9-0.6,1.3c-0.5,0.4-1.2,0.6-2.3,0.6c-0.6,0-1,0-1.3-0.1
				L630.6,497.1L630.6,497.1z M631.5,499.6h0.8c0.9,0,1.4-0.4,1.4-1c0-0.7-0.6-1-1.5-1c-0.4,0-0.6,0-0.8,0.1L631.5,499.6
				L631.5,499.6z M631.5,502.6c0.2,0,0.4,0,0.7,0c0.9,0,1.7-0.3,1.7-1.2c0-0.9-0.8-1.2-1.7-1.2h-0.7L631.5,502.6L631.5,502.6z"/>
			<path fill="#475656" d="M636.8,497v3.7c0,1.4,0.7,2,1.5,2c1,0,1.6-0.6,1.6-2V497h0.9v3.6c0,1.9-1.1,2.7-2.5,2.7
				c-1.4,0-2.4-0.7-2.4-2.7V497L636.8,497L636.8,497z"/>
			<path fill="#475656" d="M643.2,497v6.2h-0.9V497H643.2z"/>
			<path fill="#475656" d="M644.7,497h0.9v5.6h2.8v0.7h-3.7V497z"/>
			<path fill="#475656" d="M649.3,497.1c0.5-0.1,1.1-0.1,1.8-0.1c1.2,0,2.1,0.3,2.7,0.8c0.6,0.5,0.9,1.2,0.9,2.2c0,1-0.3,1.9-1,2.4
				c-0.6,0.6-1.6,0.9-2.9,0.9c-0.6,0-1.1,0-1.6-0.1L649.3,497.1L649.3,497.1z M650.2,502.6c0.2,0,0.5,0,0.9,0c1.8,0,2.8-1,2.8-2.6
				c0-1.5-0.9-2.4-2.7-2.4c-0.4,0-0.8,0-1,0.1L650.2,502.6L650.2,502.6z"/>
			<path fill="#475656" d="M659.3,500.3h-2.6v2.3h2.9v0.7h-3.7V497h3.6v0.7h-2.7v2h2.6L659.3,500.3L659.3,500.3z"/>
			<path fill="#475656" d="M660.7,497.1c0.4-0.1,1.1-0.1,1.6-0.1c0.9,0,1.5,0.2,1.9,0.5c0.3,0.3,0.5,0.7,0.5,1.2
				c0,0.8-0.6,1.4-1.3,1.6v0c0.5,0.2,0.8,0.6,1,1.3c0.2,0.9,0.4,1.5,0.5,1.7h-0.9c-0.1-0.2-0.3-0.7-0.4-1.5
				c-0.2-0.9-0.6-1.2-1.3-1.2h-0.8v2.7h-0.9L660.7,497.1L660.7,497.1z M661.6,499.9h0.9c0.9,0,1.5-0.5,1.5-1.2
				c0-0.8-0.6-1.2-1.5-1.2c-0.4,0-0.7,0-0.8,0.1V499.9L661.6,499.9z"/>
		</g>
	</g>
</g>
<g id="Calque_4">
	<g id="Marc">
		<g>
			<g>
				<defs>
					<rect id="SVGID_3_" x="277.3" y="371.8" width="99" height="99.8"/>
				</defs>
				<clipPath id="SVGID_4_">
					<use xlink:href="#SVGID_3_"  overflow="visible"/>
				</clipPath>
				<g transform="matrix(1 0 0 1 0 3.051758e-005)" clip-path="url(#SVGID_4_)">
					
						<image overflow="visible" enable-background="new    " width="2048" height="1536" xlink:href="../trombinoscope/GuillaumeBriand/img/CAM00042.jpg"  transform="matrix(0.1203 0 0 0.1203 206.9551 341.9387)">
					</image>
				</g>
			</g>
		</g>
	</g>
	<g id="Louis">
		<g>
			<g>
				<defs>
					<rect id="SVGID_5_" x="389" y="257.5" width="99.8" height="99.8"/>
				</defs>
				<clipPath id="SVGID_6_">
					<use xlink:href="#SVGID_5_"  overflow="visible"/>
				</clipPath>
				<g transform="matrix(1 0 0 1 0 -1.525879e-005)" clip-path="url(#SVGID_6_)">
					
						<image overflow="visible" enable-background="new    " width="2048" height="1536" xlink:href="../trombinoscope/GuillaumeBriand/img/CAM00040.jpg"  transform="matrix(0.1311 0 0 0.1311 314.2627 217.5642)">
					</image>
				</g>
			</g>
		</g>
	</g>
	<g id="Guillaume">
		<g>
			<g>
				<defs>
					<rect id="SVGID_7_" x="276.9" y="257.7" width="99" height="99.8"/>
				</defs>
				<clipPath id="SVGID_8_">
					<use xlink:href="#SVGID_7_"  overflow="visible"/>
				</clipPath>
				<g clip-path="url(#SVGID_8_)">
					
						<image overflow="visible" enable-background="new    " width="2048" height="1536" xlink:href="../trombinoscope/GuillaumeBriand/img/CAM00039.jpg"  transform="matrix(0.1463 0 0 0.1463 184.417 197.7004)">
					</image>
				</g>
			</g>
		</g>
	</g>
	<g id="Helene">
		<g>
			<g>
				<defs>
					<rect id="SVGID_9_" x="164.3" y="257.7" width="99.8" height="99.8"/>
				</defs>
				<clipPath id="SVGID_10_">
					<use xlink:href="#SVGID_9_"  overflow="visible"/>
				</clipPath>
				<g clip-path="url(#SVGID_10_)">
					
						<image overflow="visible" enable-background="new    " width="2048" height="1536" xlink:href="../trombinoscope/GuillaumeBriand/img/CAM00038.jpg"  transform="matrix(0.1502 0 0 0.1502 40.4189 192.5076)">
					</image>
				</g>
			</g>
		</g>
	</g>
	<g id="Alexia">
		<g>
			<g>
				<defs>
					<rect id="SVGID_11_" x="51.7" y="257.7" width="99.8" height="99.8"/>
				</defs>
				<clipPath id="SVGID_12_">
					<use xlink:href="#SVGID_11_"  overflow="visible"/>
				</clipPath>
				<g clip-path="url(#SVGID_12_)">
					
						<image overflow="visible" enable-background="new    " width="2048" height="1536" xlink:href="../trombinoscope/GuillaumeBriand/img/CAM00037.jpg"  transform="matrix(0.1591 0 0 0.1591 -82.3799 193.9006)">
					</image>
				</g>
			</g>
		</g>
	</g>
	<g id="Hugo">
		<g>
			<g>
				<defs>
					<rect id="SVGID_13_" x="51.1" y="31.5" width="99.8" height="99.8"/>
				</defs>
				<clipPath id="SVGID_14_">
					<use xlink:href="#SVGID_13_"  overflow="visible"/>
				</clipPath>
				<g clip-path="url(#SVGID_14_)">
					
						<image overflow="visible" enable-background="new    " width="2048" height="1536" xlink:href="../trombinoscope/GuillaumeBriand/img/CAM00027.jpg"  transform="matrix(0.1098 0 0 0.1098 2.0098 13.5793)">
					</image>
				</g>
			</g>
		</g>
	</g>
	<g id="Antoine">
		<g>
			<g>
				<defs>
					<rect id="SVGID_15_" x="163.7" y="31.5" width="99.8" height="99.8"/>
				</defs>
				<clipPath id="SVGID_16_">
					<use xlink:href="#SVGID_15_"  overflow="visible"/>
				</clipPath>
				<g transform="matrix(1 0 0 1 -7.629395e-006 -5.960464e-008)" clip-path="url(#SVGID_16_)">
					
						<image overflow="visible" enable-background="new    " width="2048" height="1536" xlink:href="../trombinoscope/GuillaumeBriand/img/CAM00028.jpg"  transform="matrix(0.1246 0 0 0.1246 94.0083 0.5623)">
					</image>
				</g>
			</g>
		</g>
	</g>
	<g id="Gabi">
		<g>
			<g>
				<defs>
					<rect id="SVGID_17_" x="277.1" y="31.5" width="99" height="99.8"/>
				</defs>
				<clipPath id="SVGID_18_">
					<use xlink:href="#SVGID_17_"  overflow="visible"/>
				</clipPath>
				<g transform="matrix(1 0 0 1 0 -2.384186e-007)" clip-path="url(#SVGID_18_)">
					
						<image overflow="visible" enable-background="new    " width="2048" height="1536" xlink:href="../trombinoscope/GuillaumeBriand/img/CAM00029.jpg"  transform="matrix(0.1026 0 0 0.1026 224.2432 3.9788)">
					</image>
				</g>
			</g>
		</g>
	</g>
	<g id="Macaire">
		<g>
			<g>
				<defs>
					<rect id="SVGID_19_" x="389" y="32.4" width="99.8" height="99.8"/>
				</defs>
				<clipPath id="SVGID_20_">
					<use xlink:href="#SVGID_19_"  overflow="visible"/>
				</clipPath>
				<g clip-path="url(#SVGID_20_)">
					
						<image overflow="visible" enable-background="new    " width="2048" height="1536" xlink:href="../trombinoscope/GuillaumeBriand/img/CAM00030.jpg"  transform="matrix(0.118 0 0 0.118 320.5859 -6.0002)">
					</image>
				</g>
			</g>
		</g>
	</g>
	<g id="Alex">
		<g>
			<g>
				<defs>
					<rect id="SVGID_21_" x="51.5" y="371.4" width="99.8" height="99.8"/>
				</defs>
				<clipPath id="SVGID_22_">
					<use xlink:href="#SVGID_21_"  overflow="visible"/>
				</clipPath>
				<g clip-path="url(#SVGID_22_)">
					
						<image overflow="visible" enable-background="new    " width="2048" height="1536" xlink:href="../trombinoscope/GuillaumeBriand/img/CAM00031.jpg"  transform="matrix(0.1228 0 0 0.1228 -26.0942 333.0295)">
					</image>
				</g>
			</g>
		</g>
	</g>
	<g id="Clem">
		<g>
			<g>
				<defs>
					<rect id="SVGID_23_" x="51.1" y="144.8" width="99.8" height="99.8"/>
				</defs>
				<clipPath id="SVGID_24_">
					<use xlink:href="#SVGID_23_"  overflow="visible"/>
				</clipPath>
				<g transform="matrix(1 0 0 1 -3.814697e-006 7.629395e-006)" clip-path="url(#SVGID_24_)">
					
						<image overflow="visible" enable-background="new    " width="2048" height="1536" xlink:href="../trombinoscope/GuillaumeBriand/img/CAM00032.jpg"  transform="matrix(0.1463 0 0 0.1463 -51.2705 86.0081)">
					</image>
				</g>
			</g>
		</g>
	</g>
	<g id="Yo">
		<g>
			<g>
				<defs>
					<rect id="SVGID_25_" x="163.7" y="144.8" width="99.8" height="99.8"/>
				</defs>
				<clipPath id="SVGID_26_">
					<use xlink:href="#SVGID_25_"  overflow="visible"/>
				</clipPath>
				<g clip-path="url(#SVGID_26_)">
					
						<image overflow="visible" enable-background="new    " width="2048" height="1536" xlink:href="../trombinoscope/GuillaumeBriand/img/CAM00033.jpg"  transform="matrix(0.1445 0 0 0.1445 67.0317 79.8547)">
					</image>
				</g>
			</g>
		</g>
	</g>
	<g id="Amin">
		<g>
			<g>
				<defs>
					<rect id="SVGID_27_" x="277.1" y="144.8" width="99" height="99.8"/>
				</defs>
				<clipPath id="SVGID_28_">
					<use xlink:href="#SVGID_27_"  overflow="visible"/>
				</clipPath>
				<g transform="matrix(1 0 0 1 -1.525879e-005 0)" clip-path="url(#SVGID_28_)">
					
						<image overflow="visible" enable-background="new    " width="2048" height="1536" xlink:href="../trombinoscope/GuillaumeBriand/img/CAM00034.jpg"  transform="matrix(0.1218 0 0 0.1218 196.4517 111.572)">
					</image>
				</g>
			</g>
		</g>
	</g>
	<g id="Quentin" enable-background="new    ">
		<g>
			<defs>
				<rect id="Quentin_1_" x="389" y="143.9" width="99.8" height="99.8"/>
			</defs>
			<clipPath id="Quentin_2_">
				<use xlink:href="#Quentin_1_"  overflow="visible"/>
			</clipPath>
			<g clip-path="url(#Quentin_2_)">
				
					<image overflow="visible" width="2048" height="1536" xlink:href="../trombinoscope/GuillaumeBriand/img/CAM00035.jpg"  transform="matrix(0.1326 0 0 0.1326 292.563 110.925)">
				</image>
			</g>
		</g>
	</g>
	<g id="Simon" enable-background="new    ">
		<defs>
			<rect id="Simon_1_" x="165.1" y="371.9" enable-background="new    " width="99.8" height="99.8"/>
		</defs>
		<clipPath id="Simon_2_">
			<use xlink:href="#Simon_1_"  overflow="visible"/>
		</clipPath>
		<g clip-path="url(#Simon_2_)">
			
				<image overflow="visible" width="2048" height="1536" xlink:href="../trombinoscope/GuillaumeBriand/img/CAM00036.jpg"  transform="matrix(0.117 0 0 0.117 88.1924 342.1936)">
			</image>
		</g>
	</g>
</g>
<g id="Rectangles">
	<rect id="Cadre_1" x="389" y="369.2" fill="none" width="99.8" height="108.4"/>
	
		<text id="prenom" transform="matrix(1 0 0 1 400.5898 469.8274)" fill="#3A3A3A" font-family="'MyriadPro-Regular'" font-size="20.1444">Prenom</text>
	
		<text id="TxtNom" transform="matrix(1 0 0 1 400.5898 425.3284)" fill="#3A3A3A" font-family="'MyriadPro-Regular'" font-size="20.1444">Nom</text>
</g>
</svg>
